<svg width="14" height="19" viewBox="0 0 14 19" fill="none" xmlns="http://www.w3.org/2000/svg">
<path d="M12.9928 5.02654C12.9666 4.94828 12.9209 4.82437 12.8556 4.6548C12.7903 4.48524 12.7446 4.37437 12.7185 4.3222C12.1698 3.04393 11.3665 2.09828 10.3084 1.48524C9.25039 0.872196 8.14661 0.565674 6.99712 0.565674C5.50801 0.565674 4.16258 1.0548 2.96084 2.03307C1.7591 3.01133 1.05373 4.38741 0.844727 6.16133V6.9048L0.883914 7.10046V7.37437C0.936163 7.79176 1.07332 8.26785 1.29538 8.80263C1.51744 9.33741 1.71991 9.76785 1.90278 10.0939C2.08566 10.42 2.37956 10.9157 2.78449 11.5809C3.18943 12.2461 3.45721 12.6831 3.58783 12.8918C4.34545 14.17 5.50801 16.0613 7.0755 18.5657C7.28449 18.2265 8.00293 17.0005 9.23079 14.8874C9.28304 14.8092 9.38101 14.6526 9.5247 14.4178C9.66838 14.1831 9.76635 14.0005 9.8186 13.87C9.87085 13.7918 9.95576 13.6809 10.0733 13.5374C10.1909 13.3939 10.2758 13.2831 10.328 13.2048C10.5109 12.8657 10.9093 12.22 11.5232 11.2678C12.1372 10.3157 12.5878 9.5135 12.8752 8.86133C13.1626 8.20915 13.3063 7.57002 13.3063 6.94393V6.08307C13.3063 5.79611 13.2018 5.44393 12.9928 5.02654ZM7.03631 8.90046C6.01744 8.90046 5.31207 8.4048 4.9202 7.4135C4.89407 7.28306 4.88101 7.08741 4.88101 6.82654V6.31785C4.88101 5.66567 5.10307 5.1635 5.54719 4.81133C5.99132 4.45915 6.51381 4.28307 7.11468 4.28307C7.7678 4.28307 8.30989 4.5048 8.74095 4.94828C9.17201 5.39176 9.38754 5.93959 9.38754 6.59176C9.38754 7.24393 9.15895 7.79176 8.70177 8.23524C8.24458 8.67872 7.68943 8.90046 7.03631 8.90046Z" fill="#020202"/>
</svg>
