<svg width="32" height="32" viewBox="0 0 32 32" fill="none" xmlns="http://www.w3.org/2000/svg">
<path d="M31 10.4415C31 7.87 29.8065 5.6455 28.0665 4.547C25.7685 3.0315 21.2225 1.9995 15.9885 2C9.964 1.9995 4.8535 3.366 3.0315 5.2625C1.795 6.478 1 8.3445 1 10.442C1 11.671 5.824 12.076 9.0185 11.6605C8.9705 11.7445 8.93 11.832 8.8875 11.9185C7.8785 13.243 7.06 15.649 6.541 17.487C4.534 19.0955 3.224 22.2135 3.224 22.2135V25.856C3.22307 26.3906 3.43451 26.9037 3.81182 27.2824C4.18913 27.6611 4.70141 27.8744 5.236 27.8755H5.3135V27.9815C5.3127 28.516 5.5242 29.0289 5.9015 29.4076C6.27879 29.7862 6.791 29.9994 7.3255 30.0005H10.1035C10.3682 30 10.6302 29.9475 10.8745 29.8457C11.1189 29.744 11.3408 29.5952 11.5276 29.4077C11.7145 29.2202 11.8626 28.9978 11.9634 28.7531C12.0643 28.5084 12.116 28.2462 12.1155 27.9815V27.875H19.8835V27.981C19.8827 28.5154 20.0941 29.0283 20.4713 29.4069C20.8485 29.7855 21.3606 29.9988 21.895 30H24.673C24.9377 29.9995 25.1997 29.947 25.444 29.8452C25.6884 29.7435 25.9103 29.5947 26.0971 29.4072C26.284 29.2197 26.4321 28.9973 26.5329 28.7526C26.6338 28.5079 26.6855 28.2457 26.685 27.981V27.875H26.7625C27.0272 27.8745 27.2893 27.8219 27.5337 27.7202C27.7781 27.6185 28.0001 27.4696 28.187 27.2821C28.3739 27.0945 28.522 26.872 28.6229 26.6273C28.7238 26.3825 28.7755 26.1202 28.775 25.8555V22.213C28.775 22.213 27.4645 19.0945 25.4575 17.4865C24.9615 15.73 24.192 13.454 23.244 12.099C23.1833 11.9518 23.1145 11.8081 23.038 11.6685C26.234 12.071 31 11.6625 31 10.4415ZM15.9885 6.296C17.0255 6.296 18.025 6.346 18.994 6.424C18.8405 6.7115 18.6765 6.976 18.54 7.0585C18.0585 7.349 17.0855 7.53 16 7.53C14.9145 7.53 13.941 7.3495 13.4595 7.0585C13.323 6.9755 13.1585 6.7105 13.0055 6.422C13.9977 6.34015 14.9929 6.29812 15.9885 6.296ZM23.0645 12.744C23.29 13.588 23.2025 14.4305 22.8685 15.2115L21.355 12.7415L20.6985 12.963L22.167 16.346C20.9535 17.7975 18.7405 18.8255 15.9395 18.8255C11.106 18.8255 8.085 15.774 8.975 12.7445C9.6925 10.304 12.8185 8.6485 16.074 8.6485C19.3295 8.6485 22.4115 10.3035 23.0645 12.744Z" fill="black"/>
<path d="M16.045 10.8535C14.5245 10.8535 13.182 11.6925 13.0345 12.816C12.8715 14.048 14.188 15.1395 15.9885 15.1395C17.7885 15.1395 19.133 14.0475 19.003 12.816C18.885 11.6925 17.564 10.8535 16.045 10.8535" fill="black"/>
<path d="M15.1725 10.2505C15.6495 10.5595 16.4475 10.5595 16.933 10.2505C17.405 9.94998 17.382 9.48048 16.905 9.19998C16.44 8.92748 15.699 8.92748 15.2275 9.19998C14.742 9.48048 14.708 9.94998 15.1725 10.2505" fill="black"/>
<path d="M19.295 11.334C20.0145 11.334 20.532 10.9575 20.4515 10.5085C20.375 10.0765 19.7685 9.73853 19.097 9.73853C18.4235 9.73853 17.9035 10.0775 17.9335 10.5085C17.9645 10.9575 18.573 11.334 19.295 11.334Z" fill="black"/>
<path d="M18.266 15.3261C18.312 15.9871 19.0615 16.5456 19.943 16.5456C20.82 16.5456 21.433 15.9871 21.315 15.3261C21.2015 14.6951 20.458 14.2051 19.6515 14.2051C18.842 14.2051 18.2225 14.6956 18.266 15.3261Z" fill="black"/>
<path d="M17.073 15.7136C16.4665 15.2521 15.5045 15.2521 14.8875 15.7136C14.2485 16.1901 14.189 16.9981 14.7925 17.5211C15.4195 18.0626 16.4795 18.0626 17.119 17.5211C17.738 16.9981 17.699 16.1896 17.073 15.7136Z" fill="black"/>
<path d="M12.349 14.2051C11.5405 14.2051 10.785 14.6946 10.655 15.3261C10.5195 15.9856 11.1165 16.5456 11.996 16.5456C12.8755 16.5456 13.6415 15.9856 13.7045 15.3261C13.764 14.6951 13.157 14.2051 12.349 14.2051Z" fill="black"/>
<path d="M12.0095 13.3824C12.6215 12.9939 12.7095 12.3889 12.238 12.0294C11.7795 11.6809 10.9425 11.6809 10.339 12.0294C9.71852 12.3889 9.55602 12.9939 10.0055 13.3824C10.469 13.7829 11.3795 13.7829 12.0095 13.3824" fill="black"/>
<path d="M12.7815 11.334C13.501 11.334 14.1225 10.957 14.1645 10.509C14.2065 10.0765 13.694 9.73853 13.022 9.73853C12.349 9.73853 11.7355 10.0765 11.647 10.509C11.5545 10.957 12.0605 11.334 12.7815 11.334" fill="black"/>
</svg>
