<svg width="27" height="28" viewBox="0 0 27 28" fill="none" xmlns="http://www.w3.org/2000/svg">
<path d="M0.366699 0.652588V27.0621H26.7762V0.652588H0.366699ZM6.84335 5.84454C7.88938 5.85632 8.91979 6.57796 8.96462 7.82719C8.98698 8.93804 8.01892 9.78416 6.81595 9.80984H6.78694C5.75131 9.79789 4.73994 9.05814 4.69306 7.82719C4.70783 6.72871 5.63119 5.8706 6.84335 5.84454ZM18.0655 11.0929C19.2155 11.1001 20.3008 11.4412 21.1926 12.3502C22.1192 13.3837 22.4167 14.8087 22.4498 16.2575V22.847H18.6522V16.7056C18.6437 15.5545 18.2494 14.1554 16.726 14.1088C15.8331 14.1183 15.2035 14.6371 14.7723 15.5047C14.6546 15.784 14.6377 16.1049 14.6321 16.4251V22.847H10.836C10.8506 19.6365 10.8705 16.4263 10.8634 13.2158C10.8634 12.3038 10.8547 11.6898 10.836 11.3734H14.6321V12.9917C14.9543 12.5335 15.3117 12.0989 15.791 11.749C16.4412 11.2849 17.2223 11.107 18.0655 11.0929ZM4.91712 11.3734H8.71316V22.847H4.91712V11.3734Z" fill="black"/>
</svg>
