<svg width="103" height="103" viewBox="0 0 103 103" fill="none" xmlns="http://www.w3.org/2000/svg">
<path d="M55.7287 57.5545C55.6527 57.5553 55.5784 57.5316 55.5169 57.487C55.4554 57.4423 55.41 57.3791 55.3872 57.3066C55.3644 57.2341 55.3656 57.1561 55.3906 57.0844C55.4155 57.0126 55.4629 56.9508 55.5258 56.908C59.0459 54.4708 60.9262 50.1698 60.4308 45.6871C59.9117 40.9496 56.8116 37.1582 51.9254 35.2849C49.2594 34.2633 46.3834 33.7938 43.6041 33.3361C41.9385 33.0648 40.2185 32.7817 38.5505 32.3924C33.2468 31.1278 29.7597 28.8133 27.8958 25.3144C27.7991 25.1351 27.7095 24.9535 27.6222 24.7694C27.6014 24.7268 27.5892 24.6806 27.5864 24.6333C27.5835 24.586 27.59 24.5385 27.6054 24.4937C27.6208 24.4489 27.645 24.4076 27.6764 24.3721C27.7078 24.3367 27.7459 24.3077 27.7885 24.287C27.8311 24.2662 27.8774 24.254 27.9247 24.2512C27.972 24.2483 28.0194 24.2547 28.0642 24.2702C28.109 24.2856 28.1503 24.3098 28.1858 24.3412C28.2213 24.3726 28.2502 24.4107 28.271 24.4533C28.3512 24.6255 28.4385 24.7977 28.5281 24.9653C30.2905 28.2683 33.6266 30.4695 38.7204 31.6846C40.3719 32.0762 42.073 32.357 43.7245 32.6283C46.5415 33.1002 49.4529 33.572 52.1873 34.6148C57.3283 36.5849 60.5912 40.5886 61.1527 45.5998C61.6741 50.3491 59.6781 54.9073 55.9457 57.4931C55.882 57.5367 55.8058 57.5582 55.7287 57.5545V57.5545Z" fill="#84171D"/>
<path d="M39.8883 32.6591C39.8021 32.662 39.7179 32.6326 39.6523 32.5765C36.1582 29.6533 34.1929 25.7156 34.2589 21.7755C34.2614 21.6823 34.3003 21.5937 34.3674 21.5289C34.4345 21.464 34.5243 21.4281 34.6176 21.4287C34.664 21.4293 34.7099 21.4391 34.7526 21.4575C34.7953 21.4758 34.834 21.5024 34.8664 21.5357C34.8988 21.569 34.9244 21.6084 34.9416 21.6515C34.9588 21.6947 34.9674 21.7409 34.9667 21.7873C34.9054 25.5127 36.7787 29.2475 40.1053 32.0338C40.1616 32.081 40.2019 32.1444 40.2205 32.2154C40.2392 32.2865 40.2353 32.3615 40.2093 32.4302C40.1834 32.4989 40.1368 32.5578 40.0759 32.5988C40.0149 32.6398 39.9428 32.6609 39.8694 32.6591H39.8883Z" fill="#84171D"/>
<path d="M60.1477 28.7378C60.0803 28.7374 60.0144 28.7179 59.9576 28.6816C59.9008 28.6453 59.8554 28.5936 59.8269 28.5325C57.9017 24.4037 57.7861 20.0059 59.5131 16.4622C59.5335 16.4204 59.562 16.383 59.5969 16.3522C59.6318 16.3214 59.6724 16.2978 59.7165 16.2826C59.7605 16.2675 59.8071 16.2612 59.8536 16.2641C59.9 16.267 59.9455 16.279 59.9873 16.2995C60.0291 16.3199 60.0665 16.3484 60.0973 16.3833C60.1281 16.4182 60.1518 16.4588 60.1669 16.5028C60.182 16.5469 60.1883 16.5935 60.1854 16.6399C60.1825 16.6864 60.1705 16.7318 60.1501 16.7737C58.5174 20.1215 58.6331 24.2999 60.4686 28.2329C60.508 28.3183 60.5121 28.4159 60.4798 28.5043C60.4475 28.5927 60.3816 28.6648 60.2964 28.7047C60.2497 28.726 60.199 28.7372 60.1477 28.7378V28.7378Z" fill="#84171D"/>
<path d="M48.9454 34.3391C48.8573 34.338 48.773 34.3034 48.7095 34.2424C43.8139 29.6229 41.4829 22.9012 42.639 16.7056C42.6562 16.6133 42.7093 16.5316 42.7868 16.4786C42.8642 16.4255 42.9596 16.4053 43.0518 16.4225C43.1441 16.4397 43.2258 16.4929 43.2789 16.5703C43.332 16.6477 43.3522 16.7431 43.335 16.8354C42.2308 22.7974 44.4745 29.2713 49.1884 33.7281C49.2225 33.7598 49.2499 33.798 49.269 33.8404C49.2882 33.8829 49.2987 33.9287 49.3 33.9752C49.3014 34.0217 49.2934 34.0681 49.2767 34.1115C49.26 34.1549 49.2348 34.1946 49.2026 34.2282C49.17 34.2638 49.1302 34.2921 49.0859 34.3112C49.0415 34.3303 48.9937 34.3398 48.9454 34.3391V34.3391Z" fill="#84171D"/>
<path d="M59.8857 42.5306C59.821 42.5306 59.7574 42.5129 59.7021 42.4793C59.6467 42.4458 59.6016 42.3977 59.5716 42.3403C59.5417 42.2828 59.5281 42.2183 59.5323 42.1537C59.5365 42.0891 59.5584 42.0268 59.5955 41.9738C60.9993 39.966 63.2713 36.1227 62.7287 32.9471C62.3394 30.6727 60.6808 29.2689 58.9231 27.7849C58.4182 27.3602 57.8968 26.919 57.4179 26.4613C55.1175 24.2695 52.7252 20.5253 52.9045 16.5852C52.9069 16.5384 52.9186 16.4925 52.9387 16.4502C52.9589 16.4079 52.9872 16.37 53.0221 16.3387C53.0569 16.3073 53.0976 16.2832 53.1418 16.2676C53.186 16.252 53.2328 16.2453 53.2796 16.2478C53.326 16.2497 53.3716 16.2606 53.4137 16.2802C53.4558 16.2997 53.4937 16.3273 53.525 16.3616C53.5564 16.3958 53.5807 16.4359 53.5965 16.4795C53.6123 16.5232 53.6192 16.5695 53.617 16.6159C53.4519 20.32 55.7262 23.8661 57.9133 25.9493C58.3852 26.3905 58.8901 26.8246 59.3879 27.2446C61.1645 28.7451 63.0024 30.2975 63.4341 32.8267C63.9909 36.0802 61.9737 39.8174 60.183 42.3796C60.1494 42.4269 60.1048 42.4654 60.053 42.4917C60.0012 42.518 59.9438 42.5314 59.8857 42.5306V42.5306Z" fill="#84171D"/>
<path d="M63.0117 35.8866C62.9653 35.8914 62.9183 35.887 62.8735 35.8736C62.8287 35.8603 62.787 35.8382 62.7508 35.8088C62.7145 35.7793 62.6844 35.743 62.6622 35.7019C62.64 35.6608 62.6261 35.6157 62.6213 35.5692C62.6165 35.5228 62.6209 35.4758 62.6342 35.431C62.6476 35.3862 62.6696 35.3445 62.6991 35.3083C62.7586 35.2351 62.8447 35.1885 62.9386 35.1788C65.8736 34.5394 68.2022 32.961 69.4975 30.7362C70.9791 28.1905 71.2292 24.7011 70.1699 21.4004C70.1491 21.3135 70.1619 21.222 70.2058 21.1442C70.2497 21.0664 70.3213 21.008 70.4064 20.9809C70.4915 20.9537 70.5837 20.9597 70.6646 20.9977C70.7454 21.0357 70.8089 21.1028 70.8423 21.1857C71.963 24.6727 71.6893 28.3745 70.1085 31.0948C68.7142 33.4919 66.2204 35.1906 63.0872 35.8724C63.0629 35.8808 63.0375 35.8855 63.0117 35.8866Z" fill="#84171D"/>
<path d="M75.3509 79.095C75.2837 79.0948 75.218 79.0757 75.1612 79.0398C75.1044 79.0039 75.059 78.9527 75.0301 78.8921C74.9498 78.7175 74.8625 78.5476 74.7729 78.3777C73.0105 75.0747 69.6744 72.8735 64.5807 71.6584C62.9291 71.2668 61.2281 70.9884 59.5765 70.7147C56.7595 70.2428 53.8481 69.771 51.1137 68.7281C45.9727 66.7581 42.7098 62.7544 42.1483 57.7432C41.6269 52.9939 43.6229 48.4357 47.3553 45.8499C47.4326 45.7964 47.5279 45.7758 47.6204 45.7926C47.7129 45.8094 47.7949 45.8623 47.8484 45.9395C47.9019 46.0168 47.9225 46.1122 47.9057 46.2046C47.8889 46.2971 47.836 46.3791 47.7587 46.4326C44.2386 48.8698 42.3583 53.1755 42.8537 57.6677C43.3728 62.4052 46.4729 66.1942 51.3591 68.0675C54.0227 69.0891 56.8987 69.561 59.6804 70.0163C61.346 70.2876 63.066 70.5708 64.734 70.9601C70.0377 72.2246 73.5225 74.5391 75.3887 78.038C75.4854 78.2173 75.5751 78.399 75.6624 78.583C75.702 78.6682 75.7063 78.7655 75.6745 78.8539C75.6427 78.9422 75.5773 79.0145 75.4925 79.0549C75.4483 79.0772 75.4002 79.0908 75.3509 79.095Z" fill="#84171D"/>
<path d="M68.6718 81.9169C68.5777 81.9151 68.4882 81.8761 68.4228 81.8084C68.3574 81.7408 68.3213 81.65 68.3226 81.5559C68.384 77.8306 66.5107 74.0958 63.184 71.3094C63.1457 71.2806 63.1136 71.2443 63.0897 71.2026C63.0658 71.161 63.0506 71.1149 63.0451 71.0673C63.0396 71.0196 63.0438 70.9713 63.0575 70.9253C63.0712 70.8793 63.0942 70.8366 63.1249 70.7997C63.1557 70.7629 63.1936 70.7327 63.2364 70.7109C63.2792 70.6892 63.326 70.6764 63.3739 70.6733C63.4218 70.6703 63.4698 70.677 63.5151 70.693C63.5603 70.7091 63.6018 70.7342 63.637 70.7668C67.1312 73.69 69.0965 77.6277 69.0304 81.5677C69.0298 81.6142 69.02 81.6601 69.0017 81.7028C68.9833 81.7455 68.9567 81.7842 68.9234 81.8166C68.8901 81.849 68.8508 81.8746 68.8076 81.8918C68.7644 81.909 68.7183 81.9175 68.6718 81.9169Z" fill="#84171D"/>
<path d="M43.4625 87.079C43.4086 87.0788 43.3555 87.0667 43.3068 87.0436C43.2228 87.0024 43.1585 86.9297 43.128 86.8413C43.0975 86.7529 43.1033 86.656 43.144 86.5718C44.7766 83.2239 44.661 79.0456 42.8255 75.1126C42.7858 75.0275 42.7815 74.9301 42.8135 74.8418C42.8456 74.7535 42.9114 74.6816 42.9965 74.6419C43.0816 74.6022 43.179 74.5979 43.2673 74.6299C43.3556 74.662 43.4275 74.7278 43.4672 74.8129C45.3924 78.9417 45.5057 83.3419 43.781 86.8832C43.7513 86.9421 43.7058 86.9917 43.6495 87.0262C43.5933 87.0608 43.5285 87.0791 43.4625 87.079V87.079Z" fill="#84171D"/>
<path d="M60.3054 86.9281C60.2842 86.9304 60.2628 86.9304 60.2416 86.9281C60.1958 86.9199 60.152 86.9026 60.1129 86.8774C60.0738 86.8521 60.0401 86.8193 60.0137 86.7809C59.9874 86.7425 59.9689 86.6992 59.9595 86.6536C59.95 86.608 59.9497 86.561 59.9585 86.5152C61.0627 80.5532 58.819 74.0816 54.1051 69.6225C54.0702 69.5909 54.0419 69.5526 54.022 69.51C54.0021 69.4673 53.9909 69.421 53.989 69.374C53.9872 69.3269 53.9948 69.28 54.0113 69.2359C54.0279 69.1918 54.0531 69.1514 54.0854 69.1172C54.1178 69.0829 54.1567 69.0555 54.1997 69.0365C54.2428 69.0175 54.2893 69.0072 54.3364 69.0064C54.3835 69.0056 54.4303 69.0141 54.474 69.0316C54.5177 69.0491 54.5576 69.0751 54.5911 69.1082C59.4796 73.7301 61.8012 80.4494 60.6545 86.645C60.6373 86.7249 60.5933 86.7966 60.5298 86.8481C60.4663 86.8995 60.3871 86.9278 60.3054 86.9281V86.9281Z" fill="#84171D"/>
<path d="M50.0283 87.0981H50.0141C49.9676 87.096 49.922 87.0847 49.8799 87.065C49.8377 87.0452 49.7999 87.0173 49.7686 86.9829C49.7372 86.9485 49.713 86.9083 49.6972 86.8645C49.6815 86.8207 49.6745 86.7742 49.6767 86.7277C49.8419 83.0236 47.5675 79.4799 45.3804 77.3966C44.9085 76.9531 44.4037 76.519 43.9058 76.099C42.1293 74.5985 40.2914 73.0461 39.8596 70.5169C39.3028 67.2634 41.32 63.5262 43.1107 60.9664C43.1374 60.9283 43.1713 60.8958 43.2105 60.8708C43.2497 60.8458 43.2934 60.8287 43.3392 60.8206C43.385 60.8125 43.4319 60.8135 43.4773 60.8235C43.5228 60.8336 43.5657 60.8524 43.6038 60.8791C43.642 60.9057 43.6744 60.9396 43.6995 60.9788C43.7245 61.018 43.7415 61.0618 43.7496 61.1076C43.7577 61.1533 43.7567 61.2003 43.7467 61.2457C43.7367 61.2911 43.7178 61.3341 43.6911 61.3722C42.2756 63.38 40.0153 67.2233 40.558 70.3966C40.9473 72.6733 42.6059 74.0747 44.3635 75.5587C44.8684 75.9858 45.3898 76.427 45.8688 76.8847C48.1668 79.0741 50.5615 82.8183 50.3822 86.7607C50.3779 86.8517 50.3387 86.9375 50.2728 87.0004C50.2069 87.0632 50.1193 87.0982 50.0283 87.0981V87.0981Z" fill="#84171D"/>
<path d="M32.7866 82.3984C32.7132 82.3986 32.6415 82.3761 32.5815 82.3338C32.5214 82.2915 32.476 82.2316 32.4516 82.1624C31.3309 78.6754 31.6046 74.9712 33.1853 72.2533C34.5797 69.8563 37.0735 68.1599 40.2043 67.4757C40.2501 67.4645 40.2978 67.4626 40.3444 67.47C40.391 67.4775 40.4356 67.4943 40.4757 67.5193C40.5157 67.5443 40.5504 67.577 40.5776 67.6156C40.6048 67.6542 40.624 67.6978 40.6341 67.744C40.6441 67.7901 40.6449 67.8377 40.6363 67.8842C40.6276 67.9306 40.6098 67.9748 40.5838 68.0142C40.5578 68.0536 40.5242 68.0875 40.485 68.1137C40.4457 68.1399 40.4016 68.158 40.3553 68.167C37.4203 68.8087 35.0916 70.3847 33.7964 72.6096C32.3147 75.1553 32.0646 78.647 33.124 81.9454C33.1378 81.9901 33.1427 82.0372 33.1383 82.0839C33.134 82.1305 33.1204 82.1759 33.0985 82.2173C33.0766 82.2587 33.0467 82.2954 33.0106 82.3252C32.9745 82.3551 32.9329 82.3775 32.888 82.3913C32.8546 82.3976 32.8206 82.4 32.7866 82.3984Z" fill="#84171D"/>
<path d="M55.8584 61.6291C51.6565 61.6291 47.7589 59.6756 45.4468 56.3278C45.3971 56.2504 45.3795 56.1568 45.3976 56.0667C45.4157 55.9766 45.4682 55.8971 45.5439 55.845C45.6196 55.7929 45.7126 55.7723 45.8032 55.7875C45.8939 55.8028 45.975 55.8527 46.0295 55.9267C48.4643 59.4491 52.7677 61.3342 57.2575 60.8458C61.995 60.3315 65.7911 57.2361 67.6691 52.3523C68.6954 49.6887 69.1697 46.8127 69.6274 44.0334C69.9034 42.3677 70.1865 40.6454 70.5876 38.9797C71.8593 33.676 74.1761 30.1937 77.6655 28.3345C77.8449 28.2378 78.0289 28.1481 78.2106 28.0608C78.2525 28.0402 78.2982 28.0281 78.3448 28.0251C78.3915 28.0222 78.4383 28.0284 78.4826 28.0435C78.5268 28.0586 78.5677 28.0823 78.6028 28.1132C78.6379 28.1441 78.6665 28.1817 78.6871 28.2236C78.7077 28.2656 78.7199 28.3112 78.7228 28.3579C78.7258 28.4046 78.7196 28.4514 78.7044 28.4956C78.6893 28.5399 78.6656 28.5807 78.6347 28.6158C78.6038 28.6509 78.5663 28.6796 78.5243 28.7002C78.3497 28.7804 78.1799 28.8677 78.01 28.9574C74.707 30.7174 72.4987 34.0488 71.2789 39.1425C70.8849 40.794 70.6018 42.4928 70.3352 44.1443C69.8633 46.9613 69.3914 49.8727 68.3392 52.6048C66.3621 57.741 62.356 61.0016 57.3448 61.5442C56.8513 61.5997 56.3551 61.6281 55.8584 61.6291V61.6291Z" fill="#1D1E3D"/>
<path d="M70.651 40.6739C70.5836 40.6737 70.5176 40.6543 70.4608 40.6178C70.4041 40.5814 70.3589 40.5295 70.3307 40.4683C70.3024 40.4071 70.2922 40.3391 70.3013 40.2722C70.3104 40.2054 70.3384 40.1426 70.382 40.0912C73.2604 36.6631 77.1155 34.7119 80.9872 34.7119H81.1901C81.2839 34.7119 81.3739 34.7492 81.4403 34.8156C81.5067 34.8819 81.544 34.972 81.544 35.0658C81.544 35.1597 81.5067 35.2497 81.4403 35.3161C81.3739 35.3824 81.2839 35.4197 81.1901 35.4197V35.4197C77.4623 35.356 73.7252 37.2222 70.9341 40.5465C70.9001 40.5883 70.8568 40.6215 70.8076 40.6436C70.7585 40.6658 70.7049 40.6761 70.651 40.6739V40.6739Z" fill="#1D1E3D"/>
<path d="M74.5488 60.9377C74.4683 60.9375 74.3902 60.9099 74.3275 60.8594C74.2648 60.8089 74.2212 60.7386 74.2038 60.6599C74.1865 60.5813 74.1965 60.4991 74.2322 60.4269C74.2679 60.3547 74.3272 60.2969 74.4002 60.2629C78.5313 58.3424 82.9291 58.2339 86.4704 59.9656C86.5549 60.0069 86.6195 60.0801 86.65 60.169C86.6806 60.258 86.6745 60.3554 86.6332 60.4399C86.5919 60.5243 86.5187 60.5889 86.4298 60.6195C86.3409 60.65 86.2435 60.644 86.159 60.6027C82.8111 58.9653 78.6351 59.0762 74.6998 60.9046C74.6526 60.927 74.601 60.9383 74.5488 60.9377V60.9377Z" fill="#1D1E3D"/>
<path d="M68.962 49.7288C68.8739 49.7277 68.7895 49.6931 68.726 49.6321C68.692 49.6003 68.6646 49.5621 68.6454 49.5197C68.6263 49.4773 68.6157 49.4315 68.6144 49.385C68.6131 49.3384 68.621 49.2921 68.6377 49.2487C68.6545 49.2052 68.6797 49.1655 68.7119 49.1319C73.3385 44.2505 80.0625 41.9336 86.2557 43.0921C86.3014 43.1006 86.345 43.118 86.384 43.1434C86.4229 43.1687 86.4565 43.2015 86.4828 43.2399C86.5091 43.2782 86.5276 43.3213 86.5372 43.3668C86.5468 43.4123 86.5474 43.4592 86.5388 43.5049C86.5303 43.5506 86.5129 43.5942 86.4875 43.6332C86.4622 43.6721 86.4294 43.7057 86.391 43.732C86.3527 43.7583 86.3096 43.7768 86.2641 43.7864C86.2186 43.796 86.1717 43.7966 86.126 43.7881C80.1663 42.6745 73.69 44.9087 69.2262 49.6203C69.192 49.6556 69.1509 49.6835 69.1054 49.7022C69.06 49.7209 69.0111 49.7299 68.962 49.7288Z" fill="#1D1E3D"/>
<path d="M68.9692 63.9577C66.0083 63.9577 62.8208 62.1906 60.5535 60.6028C60.4766 60.5487 60.4242 60.4662 60.4081 60.3735C60.3919 60.2808 60.4133 60.1855 60.4674 60.1085C60.5215 60.0315 60.604 59.9792 60.6967 59.9631C60.7894 59.9469 60.8847 59.9683 60.9617 60.0224C62.9671 61.438 66.8057 63.7076 69.9837 63.1673C72.2581 62.7804 73.6619 61.1242 75.1482 59.3689C75.5753 58.864 76.0188 58.3426 76.4765 57.8636C78.6683 55.568 82.422 53.1804 86.3573 53.362C86.4038 53.3642 86.4494 53.3755 86.4915 53.3953C86.5336 53.4151 86.5714 53.443 86.6027 53.4774C86.6341 53.5118 86.6583 53.552 86.6741 53.5958C86.6899 53.6395 86.6969 53.686 86.6947 53.7325C86.6925 53.7789 86.6812 53.8245 86.6615 53.8666C86.6417 53.9087 86.6138 53.9465 86.5794 53.9779C86.545 54.0092 86.5048 54.0334 86.461 54.0492C86.4172 54.065 86.3708 54.072 86.3243 54.0698C82.6225 53.8953 79.0741 56.1696 76.9885 58.352C76.5449 58.8239 76.1085 59.3287 75.6885 59.8266C74.1856 61.6008 72.6214 63.4363 70.1017 63.8657C69.7273 63.9272 69.3486 63.958 68.9692 63.9577V63.9577Z" fill="#1D1E3D"/>
<path d="M77.4604 71.9652C75.489 71.9972 73.5441 71.5089 71.8216 70.5497C69.4246 69.1506 67.7306 66.6568 67.0511 63.5236C67.0314 63.4317 67.0489 63.3357 67.0997 63.2566C67.1506 63.1774 67.2306 63.1216 67.3224 63.1013C67.3678 63.0913 67.4148 63.0903 67.4605 63.0986C67.5063 63.1068 67.55 63.124 67.589 63.1493C67.6281 63.1745 67.6618 63.2073 67.6881 63.2456C67.7144 63.2839 67.7329 63.3271 67.7424 63.3726C68.3794 66.31 69.9554 68.641 72.1779 69.9386C74.7212 71.4226 78.2106 71.6774 81.5113 70.6228C81.5556 70.6087 81.6023 70.6035 81.6486 70.6074C81.6949 70.6113 81.74 70.6243 81.7813 70.6457C81.8226 70.6671 81.8593 70.6964 81.8893 70.7319C81.9193 70.7674 81.942 70.8085 81.9561 70.8528C81.9702 70.8971 81.9754 70.9438 81.9714 70.9901C81.9675 71.0364 81.9545 71.0815 81.9331 71.1228C81.9118 71.1641 81.8825 71.2008 81.847 71.2308C81.8114 71.2608 81.7703 71.2835 81.726 71.2976C80.3469 71.7379 78.9081 71.9631 77.4604 71.9652V71.9652Z" fill="#1D1E3D"/>
<path d="M24.496 75.2732C24.4153 75.2736 24.3368 75.2464 24.2737 75.1961C24.2106 75.1458 24.1666 75.0754 24.1489 74.9966C24.1313 74.9178 24.1411 74.8354 24.1768 74.763C24.2125 74.6906 24.2718 74.6325 24.345 74.5985C24.5196 74.5183 24.6895 74.431 24.8593 74.3413C28.1624 72.5813 30.3707 69.2499 31.5904 64.1562C31.9845 62.5046 32.2676 60.8059 32.5342 59.1544C33.006 56.3374 33.4779 53.426 34.5301 50.6939C36.5073 45.5577 40.5157 42.2971 45.5269 41.7545C50.2786 41.2378 54.832 43.2385 57.4131 46.9756C57.4628 47.053 57.4804 47.1466 57.4623 47.2367C57.4442 47.3268 57.3917 47.4063 57.316 47.4584C57.2403 47.5105 57.1473 47.5311 57.0567 47.5159C56.966 47.5006 56.8849 47.4507 56.8304 47.3767C54.3956 43.8543 50.0922 41.9692 45.6024 42.4575C40.8649 42.9719 37.0688 46.0673 35.1908 50.9511C34.1645 53.6147 33.6902 56.4907 33.2325 59.27C32.9565 60.9357 32.6734 62.658 32.2723 64.3237C31.0006 69.6274 28.6838 73.1074 25.1943 74.9689C25.015 75.0656 24.8334 75.1553 24.6493 75.2426C24.6009 75.2631 24.5487 75.2736 24.496 75.2732Z" fill="#1D1E3D"/>
<path d="M21.9008 68.5912H21.6979C21.604 68.5912 21.514 68.5539 21.4476 68.4876C21.3813 68.4212 21.344 68.3312 21.344 68.2373C21.344 68.1435 21.3813 68.0535 21.4476 67.9871C21.514 67.9207 21.604 67.8834 21.6979 67.8834V67.8834C25.4232 67.9495 29.1628 66.0809 31.9538 62.7567C31.9836 62.7212 32.02 62.6919 32.0611 62.6705C32.1021 62.6491 32.147 62.636 32.1931 62.632C32.2392 62.6279 32.2857 62.633 32.3298 62.6469C32.374 62.6608 32.415 62.6833 32.4505 62.713C32.4859 62.7427 32.5152 62.7792 32.5366 62.8202C32.558 62.8613 32.5711 62.9062 32.5751 62.9523C32.5792 62.9984 32.5741 63.0449 32.5602 63.089C32.5463 63.1332 32.5238 63.1742 32.4941 63.2096C29.6157 66.6401 25.7606 68.5912 21.9008 68.5912Z" fill="#1D1E3D"/>
<path d="M21.8773 44.5619C19.9833 44.5742 18.1116 44.152 16.4061 43.328C16.3643 43.3075 16.3269 43.279 16.2961 43.2441C16.2652 43.2092 16.2416 43.1686 16.2265 43.1246C16.2114 43.0805 16.2051 43.034 16.208 42.9875C16.2108 42.941 16.2229 42.8956 16.2433 42.8538C16.2637 42.8119 16.2922 42.7745 16.3271 42.7437C16.362 42.7129 16.4027 42.6893 16.4467 42.6741C16.4907 42.659 16.5373 42.6527 16.5838 42.6556C16.6303 42.6585 16.6757 42.6705 16.7175 42.691C20.0654 44.3283 24.2414 44.2174 28.1767 42.389C28.2188 42.3693 28.2644 42.3581 28.3109 42.3561C28.3574 42.354 28.4038 42.3611 28.4475 42.377C28.4912 42.3929 28.5313 42.4172 28.5656 42.4486C28.5999 42.48 28.6277 42.5179 28.6474 42.56C28.6671 42.6022 28.6782 42.6478 28.6803 42.6942C28.6823 42.7407 28.6752 42.7871 28.6593 42.8308C28.6435 42.8745 28.6191 42.9146 28.5877 42.9489C28.5563 42.9832 28.5185 43.011 28.4763 43.0307C26.414 44.0143 24.1621 44.5368 21.8773 44.5619V44.5619Z" fill="#1D1E3D"/>
<path d="M19.8248 60.5062C18.7523 60.5071 17.6821 60.4084 16.6279 60.2113C16.5821 60.2031 16.5383 60.1858 16.4992 60.1606C16.46 60.1353 16.4263 60.1025 16.4 60.0641C16.3737 60.0257 16.3552 59.9824 16.3457 59.9368C16.3363 59.8912 16.3359 59.8442 16.3448 59.7984C16.3626 59.7064 16.4158 59.6251 16.4931 59.5721C16.5704 59.5191 16.6655 59.4987 16.7577 59.5153C22.7197 60.6289 29.1936 58.3946 33.6574 53.6831C33.6901 53.6495 33.7291 53.6226 33.7722 53.6041C33.8152 53.5855 33.8615 53.5756 33.9084 53.575C33.9553 53.5743 34.0018 53.5829 34.0454 53.6002C34.089 53.6176 34.1287 53.6433 34.1623 53.676C34.1959 53.7087 34.2228 53.7477 34.2413 53.7908C34.2599 53.8338 34.2698 53.8801 34.2704 53.927C34.2711 53.9739 34.2625 54.0204 34.2452 54.064C34.2278 54.1076 34.2021 54.1473 34.1694 54.1809C30.3332 58.2224 25.0507 60.5062 19.8248 60.5062Z" fill="#1D1E3D"/>
<path d="M16.9461 49.9506C16.8022 49.9506 16.6606 49.9506 16.5167 49.9506C16.4229 49.9462 16.3346 49.9047 16.2713 49.8353C16.208 49.7658 16.175 49.6741 16.1793 49.5802C16.1837 49.4863 16.2252 49.3981 16.2947 49.3348C16.3641 49.2715 16.4559 49.2384 16.5498 49.2428C20.2562 49.4174 23.7999 47.143 25.8856 44.9607C26.3291 44.4888 26.7656 43.9839 27.1855 43.4861C28.6884 41.7119 30.2526 39.8763 32.7724 39.447C36.0259 38.8972 39.7607 40.9168 42.3205 42.7099C42.3586 42.7367 42.3911 42.7707 42.416 42.8101C42.441 42.8494 42.458 42.8933 42.466 42.9392C42.474 42.9851 42.4728 43.0321 42.4627 43.0776C42.4525 43.123 42.4334 43.1661 42.4066 43.2042C42.3798 43.2423 42.3458 43.2747 42.3065 43.2997C42.2671 43.3246 42.2232 43.3416 42.1773 43.3496C42.1314 43.3576 42.0844 43.3565 42.039 43.3463C41.9935 43.3361 41.9505 43.3171 41.9124 43.2903C39.907 41.8747 36.0636 39.6074 32.8904 40.1453C30.616 40.5322 29.2122 42.1885 27.7258 43.9438C27.2988 44.4487 26.8576 44.9701 26.3975 45.449C24.2859 47.6526 20.721 49.9506 16.9461 49.9506Z" fill="#1D1E3D"/>
<path d="M35.4784 40.2158C35.3978 40.216 35.3196 40.1884 35.2569 40.1377C35.1941 40.087 35.1508 40.0163 35.134 39.9374C34.497 37.0001 32.9209 34.6691 30.6985 33.3715C28.1551 31.8875 24.6657 31.6327 21.365 32.6873C21.3207 32.7015 21.2741 32.7069 21.2277 32.7031C21.1813 32.6993 21.1361 32.6865 21.0947 32.6652C21.0533 32.6439 21.0165 32.6148 20.9863 32.5793C20.9562 32.5438 20.9334 32.5027 20.9191 32.4584C20.9049 32.4141 20.8995 32.3674 20.9033 32.3211C20.9071 32.2747 20.92 32.2295 20.9412 32.1881C20.9625 32.1467 20.9916 32.1099 21.0271 32.0797C21.0626 32.0496 21.1037 32.0268 21.148 32.0125C24.6374 30.8966 28.3415 31.1773 31.0571 32.7604C33.4612 34.1595 35.1458 36.6533 35.8205 39.7888C35.8402 39.8808 35.8227 39.9768 35.7719 40.0559C35.7211 40.135 35.641 40.1908 35.5492 40.2111C35.5258 40.2147 35.5021 40.2163 35.4784 40.2158V40.2158Z" fill="#1D1E3D"/>
<path d="M5.49895 28.9361C5.61659 28.6834 5.78527 28.4577 5.99439 28.2734C6.2035 28.0891 6.44851 27.95 6.714 27.865C6.98515 27.777 7.27136 27.745 7.55526 27.7709C7.83915 27.7969 8.11482 27.8803 8.36552 28.016C8.62323 28.135 8.85428 28.3047 9.04482 28.5152C9.23536 28.7256 9.38147 28.9723 9.47439 29.2405C9.56611 29.5035 9.60235 29.7827 9.58083 30.0604C9.55931 30.3382 9.48049 30.6085 9.34935 30.8542L8.57078 32.4161L4.7251 30.498L5.49895 28.9361ZM8.84446 30.6042C8.9361 30.4295 8.9896 30.2374 9.00139 30.0405C9.01319 29.8437 8.98302 29.6466 8.91288 29.4622C8.76288 29.069 8.46352 28.751 8.08004 28.5775C7.70994 28.3751 7.27475 28.3276 6.86971 28.4454C6.68135 28.4978 6.5063 28.5897 6.3562 28.715C6.20609 28.8403 6.08437 28.9961 5.99913 29.172L5.49423 30.1889L8.32541 31.6045L8.84446 30.6042Z" fill="#1D1E3D"/>
<path d="M11.1234 24.0971C11.2302 24.0081 11.3581 23.9479 11.4948 23.9222C11.6315 23.8966 11.7725 23.9065 11.9043 23.9509L13.2373 24.2977L12.8669 24.8639L11.5858 24.5407C11.2838 24.4534 11.029 24.5879 10.812 24.9253L10.1891 25.869L11.6047 26.7938L11.2697 27.3058L7.68115 24.9465L8.7688 23.295C8.96226 22.9671 9.26963 22.7219 9.6323 22.6061C9.92103 22.5326 10.2266 22.5665 10.4922 22.7015C10.7578 22.8365 10.9653 23.0633 11.0762 23.3398C11.1601 23.5787 11.1732 23.8368 11.114 24.083L11.1234 24.0971ZM10.4864 24.5053C10.6239 24.3159 10.6861 24.0821 10.661 23.8494C10.6496 23.7444 10.6149 23.6433 10.5593 23.5535C10.5038 23.4637 10.4289 23.3875 10.3401 23.3304C10.2541 23.2689 10.1549 23.2284 10.0505 23.212C9.94601 23.1956 9.83918 23.2038 9.73847 23.236C9.51662 23.3073 9.32807 23.4565 9.20763 23.6559L8.49983 24.7459L9.79038 25.5953L10.4864 24.5053Z" fill="#1D1E3D"/>
<path d="M14.6389 22.632C14.6085 22.6719 14.5702 22.7051 14.5263 22.7295C14.4824 22.7538 14.434 22.7688 14.3841 22.7736C14.2875 22.7817 14.1915 22.753 14.1151 22.6934C14.0763 22.6633 14.0441 22.6256 14.0206 22.5826C13.997 22.5396 13.9826 22.4921 13.9783 22.4433C13.9676 22.344 13.9961 22.2445 14.0579 22.166C14.1196 22.0875 14.2096 22.0363 14.3086 22.0233C14.3574 22.0145 14.4074 22.0163 14.4555 22.0285C14.5035 22.0407 14.5483 22.0631 14.587 22.0941C14.6264 22.1248 14.659 22.1633 14.683 22.2071C14.7069 22.2509 14.7216 22.2992 14.7262 22.3489C14.7326 22.3996 14.7282 22.4511 14.7131 22.4999C14.6981 22.5487 14.6728 22.5938 14.6389 22.632Z" fill="#1D1E3D"/>
<path d="M18.5977 15.5094C18.7222 15.4477 18.8603 15.4188 18.999 15.4254C19.1377 15.432 19.2724 15.4739 19.3904 15.5471L20.6031 16.1959L20.11 16.6678L18.9304 16.0591C18.6567 15.9128 18.3759 15.9765 18.0881 16.2502L17.2623 17.0288L18.4208 18.2556L17.9772 18.6732L15.0352 15.5424L16.4743 14.1834C16.738 13.9106 17.0918 13.7429 17.47 13.7116C17.7675 13.707 18.0567 13.8104 18.284 14.0025C18.5112 14.1946 18.6612 14.4626 18.7062 14.7567C18.7322 15.0081 18.6864 15.2617 18.5741 15.4881L18.5977 15.5094ZM17.8899 15.7642C18.0655 15.6088 18.1787 15.3951 18.2084 15.1625C18.2204 15.0568 18.2084 14.9497 18.1733 14.8492C18.1382 14.7487 18.0808 14.6574 18.0055 14.5822C17.9358 14.5024 17.8487 14.4396 17.751 14.3987C17.6532 14.3578 17.5474 14.3399 17.4417 14.3462C17.2089 14.3642 16.9908 14.4666 16.8282 14.6341L15.8845 15.5306L16.9297 16.6678L17.8899 15.7642Z" fill="#1D1E3D"/>
<path d="M20.6575 10.675L21.193 10.2739L25.2039 12.6332L24.6494 13.0461L23.8284 12.5389L22.0447 13.8601L22.2807 14.792L21.7215 15.2049L20.6575 10.675ZM21.9244 13.3481L23.3848 12.2675L21.3653 11.0454L21.344 11.0596L21.9244 13.3481Z" fill="#1D1E3D"/>
<path d="M26.6336 11.7601L24.4819 8.04183L27.2541 6.4375L27.5372 6.92824L25.2888 8.22822L26.058 9.55651L28.0988 8.37686L28.3536 8.81805L26.3128 9.9977L27.1574 11.4581L26.6336 11.7601Z" fill="#1D1E3D"/>
<path d="M30.175 5.02921L30.7908 4.75317L34.2047 7.93825L33.5748 8.22136L32.8835 7.54896L30.8663 8.44786L30.9088 9.41046L30.2741 9.69357L30.175 5.02921ZM30.838 7.91229L32.4895 7.17147L30.7814 5.54354H30.7602L30.838 7.91229Z" fill="#1D1E3D"/>
<path d="M35.7923 5.41589L36.184 6.65925L38.7792 5.84292L38.9467 6.37377L35.7758 7.37412L34.4758 3.27835L37.5878 2.29688L37.7576 2.83716L35.2285 3.63225L35.639 4.92987L37.9983 4.18904L38.1516 4.6727L35.7923 5.41589Z" fill="#1D1E3D"/>
<path d="M40.5653 1.56836L41.2966 5.23473L43.7999 4.73456L43.9084 5.28192L40.813 5.9095L39.9707 1.69812L40.5653 1.56836Z" fill="#1D1E3D"/>
<path d="M49.0801 2.89874L49.1202 4.20344L51.8311 4.12322L51.8476 4.68002L48.5233 4.77675L48.4006 0.4828L51.6612 0.388428L51.6777 0.954663L49.0329 1.03252L49.073 2.39148L51.5409 2.31835L51.555 2.82796L49.0801 2.89874Z" fill="#1D1E3D"/>
<path d="M57.4272 5.05257L56.8893 5.00538L54.6786 1.56786H54.6597L54.379 4.77417L53.7703 4.7199L54.1454 0.451904L54.6833 0.499091L56.8916 3.92717H56.9176L57.2007 0.711429L57.8023 0.763334L57.4272 5.05257Z" fill="#1D1E3D"/>
<path d="M61.8699 4.0217L61.976 3.52861L63.7337 3.9061L63.3492 5.70389C62.8062 5.95335 62.1976 6.02199 61.6127 5.89972C60.9969 5.7966 60.4453 5.4582 60.0744 4.95599C59.9047 4.71444 59.7892 4.43906 59.7359 4.14871C59.6825 3.85836 59.6926 3.5599 59.7654 3.2738C59.8203 2.97653 59.9365 2.69397 60.1067 2.44415C60.2769 2.19432 60.4973 1.98271 60.7539 1.82282C61.0202 1.65975 61.3163 1.55117 61.6249 1.50338C61.9335 1.45559 62.2485 1.46954 62.5517 1.54442C63.0391 1.63604 63.4939 1.85408 63.8706 2.17672L63.5709 2.66038C63.2564 2.37328 62.8685 2.17892 62.4503 2.09886C62.223 2.04137 61.9865 2.03054 61.7549 2.06704C61.5234 2.10353 61.3016 2.18659 61.1031 2.3112C60.9108 2.43156 60.7453 2.59026 60.617 2.77739C60.4888 2.96452 60.4004 3.17607 60.3575 3.39884C60.3061 3.60979 60.3005 3.82933 60.3412 4.04261C60.3819 4.25589 60.468 4.45794 60.5935 4.63512C60.8636 5.00921 61.2691 5.26315 61.7236 5.34292C62.0898 5.4269 62.473 5.39558 62.8207 5.25327L63.0306 4.26943L61.8699 4.0217Z" fill="#1D1E3D"/>
<path d="M66.2983 5.14687L65.8784 6.38079L68.4453 7.25845L68.266 7.78458L65.1187 6.70873L66.5083 2.646L69.5966 3.69117L69.4126 4.22674L66.9047 3.37031L66.4635 4.65613L68.7992 5.45594L68.634 5.9278L66.2983 5.14687Z" fill="#1D1E3D"/>
<path d="M72.4181 4.89217L70.828 8.27543L73.1377 9.36071L72.9018 9.86561L70.0447 8.52316L71.8708 4.63501L72.4181 4.89217Z" fill="#1D1E3D"/>
<path d="M77.9627 10.2102C78.1476 10.3991 78.2717 10.639 78.319 10.8991C78.3604 11.145 78.3082 11.3975 78.1727 11.6069C78.0894 11.7464 77.9745 11.8644 77.8372 11.9513C77.6999 12.0381 77.5441 12.0915 77.3824 12.107C77.0102 12.1464 76.6361 12.0537 76.3254 11.8452L74.5134 10.7316L76.7619 7.07227L78.4841 8.12924C78.7893 8.29919 79.0255 8.57041 79.1518 8.89602C79.2053 9.038 79.2246 9.19056 79.2082 9.34139C79.1918 9.49221 79.1402 9.63706 79.0575 9.76424C78.9544 9.94098 78.7936 10.0768 78.6021 10.1488C78.4014 10.2186 78.1859 10.2349 77.9769 10.196L77.9627 10.2102ZM76.5802 11.3639C76.7686 11.4913 76.9954 11.5496 77.2219 11.529C77.319 11.518 77.4121 11.4845 77.494 11.4313C77.5759 11.378 77.6443 11.3065 77.6938 11.2223C77.7457 11.141 77.7773 11.0484 77.7859 10.9523C77.7945 10.8562 77.7799 10.7595 77.7433 10.6702C77.6569 10.461 77.5022 10.2872 77.3045 10.1771L76.0375 9.40091L75.3085 10.5806L76.5802 11.3639ZM76.9907 7.85792L76.2947 8.99275L77.4461 9.70054C77.6161 9.81602 77.8227 9.86474 78.0264 9.83738C78.1185 9.82497 78.2065 9.79175 78.2837 9.74024C78.361 9.68873 78.4255 9.62028 78.4724 9.54011C78.5221 9.46422 78.5533 9.37773 78.5635 9.28759C78.5738 9.19745 78.5628 9.10617 78.5313 9.02106C78.4592 8.82878 78.3213 8.66828 78.1421 8.56807L76.9907 7.85792Z" fill="#1D1E3D"/>
<path d="M82.3557 13.8577C82.4357 13.9716 82.4851 14.104 82.4991 14.2424C82.5132 14.3808 82.4914 14.5205 82.4359 14.6481L81.9782 15.9599L81.445 15.5423L81.8744 14.2942C81.9782 14.0017 81.8744 13.7327 81.563 13.4873L80.6688 12.7795L79.6284 14.1055L79.1565 13.728L81.8107 10.3518L83.3679 11.5739C83.6754 11.7953 83.8925 12.1204 83.9789 12.4893C84.0274 12.7835 83.9676 13.0852 83.8106 13.3386C83.6535 13.592 83.4099 13.7798 83.1249 13.8672C82.88 13.931 82.622 13.9228 82.3817 13.8436L82.3557 13.8577ZM82.0018 13.1901C82.1781 13.3456 82.4061 13.4297 82.6412 13.426C82.7487 13.4211 82.8536 13.3918 82.948 13.3403C83.0425 13.2888 83.1239 13.2164 83.1862 13.1287C83.2541 13.0477 83.3026 12.9522 83.3279 12.8496C83.3533 12.7469 83.3548 12.6399 83.3325 12.5365C83.2799 12.3087 83.1456 12.1081 82.955 11.9727L81.931 11.1658L80.9873 12.3808L82.0018 13.1901Z" fill="#1D1E3D"/>
<path d="M85.1304 16.3136L84.215 17.2408L86.1426 19.1471L85.7509 19.5435L83.3916 17.2077L86.4139 14.1406L88.7307 16.4339L88.3344 16.8373L86.4469 14.9735L85.5032 15.9384L87.2562 17.6749L86.8999 18.0382L85.1304 16.3136Z" fill="#1D1E3D"/>
<path d="M88.7895 22.3962C88.9465 22.589 89.1319 22.7568 89.3393 22.894C89.5275 23.0207 89.7356 23.1148 89.9551 23.1724L89.587 23.6018C89.0923 23.4514 88.6568 23.1503 88.3413 22.7406C87.9303 22.2712 87.718 21.6603 87.7491 21.0372C87.7697 20.7415 87.854 20.4537 87.9961 20.1935C88.1382 19.9333 88.3348 19.7068 88.5725 19.5296C88.8018 19.3338 89.0694 19.188 89.3582 19.1015C89.6471 19.0149 89.9508 18.9896 90.25 19.0271C90.5592 19.0683 90.8569 19.1713 91.1256 19.3297C91.3943 19.4882 91.6284 19.699 91.8142 19.9496C92.1001 20.2958 92.2933 20.709 92.3757 21.1505L91.8354 21.3864C91.7904 20.9813 91.6262 20.5987 91.3636 20.2869C91.2256 20.1011 91.051 19.9455 90.8505 19.8299C90.6501 19.7142 90.428 19.6409 90.1981 19.6145C89.9754 19.5904 89.7501 19.6119 89.5359 19.6776C89.3218 19.7433 89.1232 19.8519 88.9523 19.9967C88.7749 20.1277 88.6283 20.2959 88.5228 20.4895C88.4172 20.683 88.3553 20.8974 88.3413 21.1174C88.3194 21.5856 88.4802 22.0441 88.7895 22.3962V22.3962Z" fill="#1D1E3D"/>
<path d="M93.9871 26.5931L95.5914 25.5951L95.9123 26.1047L92.2672 28.3767L91.9463 27.8624L93.4869 26.9045L92.1893 24.8189L90.6487 25.7791L90.3254 25.2601L93.9706 22.988L94.2938 23.5071L92.6895 24.5074L93.9871 26.5931Z" fill="#1D1E3D"/>
<path d="M93.7275 31.2412L97.099 29.6439L96.4832 28.3463L96.9952 28.1104L98.4886 31.2624L97.9767 31.4983L97.3609 30.2007L93.9918 31.798L93.7275 31.2412Z" fill="#1D1E3D"/>
<path d="M96.1929 37.7221C96.1768 37.6742 96.1708 37.6235 96.1753 37.5731C96.1797 37.5228 96.1946 37.4739 96.2189 37.4296C96.2418 37.385 96.2735 37.3456 96.312 37.3135C96.3505 37.2815 96.3951 37.2576 96.443 37.2432C96.49 37.2279 96.5396 37.2225 96.5888 37.2273C96.6379 37.2322 96.6855 37.2472 96.7285 37.2715C96.7724 37.2944 96.8112 37.3258 96.8428 37.3639C96.8744 37.4019 96.8981 37.4459 96.9125 37.4933C96.9277 37.5409 96.9331 37.5911 96.9287 37.641C96.9242 37.6908 96.9099 37.7392 96.8866 37.7835C96.865 37.8277 96.8346 37.867 96.7973 37.8991C96.76 37.9311 96.7165 37.9552 96.6695 37.9698C96.6218 37.9851 96.5714 37.9905 96.5215 37.9856C96.4716 37.9808 96.4232 37.9658 96.3793 37.9415C96.2908 37.8957 96.2239 37.8169 96.1929 37.7221V37.7221Z" fill="#1D1E3D"/>
<path d="M98.3898 44.8377C98.4297 45.0848 98.5094 45.3238 98.6257 45.5455C98.7248 45.7504 98.8589 45.9365 99.0221 46.0952L98.4865 46.2863C98.1335 45.9082 97.9061 45.4303 97.8354 44.9179C97.7123 44.3057 97.8316 43.6697 98.168 43.1437C98.3332 42.8977 98.5497 42.6905 98.8026 42.5361C99.0555 42.3818 99.3389 42.284 99.6331 42.2495C99.9296 42.1931 100.234 42.1994 100.528 42.2681C100.822 42.3368 101.098 42.4663 101.339 42.6482C101.586 42.838 101.792 43.0752 101.946 43.3458C102.1 43.6165 102.199 43.9151 102.235 44.2243C102.311 44.6695 102.272 45.1265 102.122 45.5526L101.535 45.4912C101.697 45.1205 101.747 44.7104 101.679 44.3116C101.652 44.0816 101.578 43.8597 101.461 43.6595C101.345 43.4594 101.188 43.2855 101.002 43.1484C100.82 43.0163 100.614 42.9224 100.396 42.8725C100.177 42.8226 99.9504 42.8177 99.7299 42.8582C99.5109 42.8846 99.3003 42.9581 99.1125 43.0738C98.9247 43.1895 98.7642 43.3445 98.6422 43.5283C98.3945 43.9167 98.3042 44.385 98.3898 44.8377Z" fill="#1D1E3D"/>
<path d="M98.2644 48.1221L102.549 47.8225L102.589 48.4265L98.3045 48.7261L98.2644 48.1221Z" fill="#1D1E3D"/>
<path d="M100.253 53.4732C100.212 53.6059 100.136 53.7256 100.034 53.8206C99.9327 53.9157 99.8083 53.9829 99.673 54.0158L98.3589 54.4358L98.3707 53.7586L99.6235 53.3458C99.9208 53.2537 100.072 53.0084 100.079 52.612L100.098 51.4772L98.4108 51.4465V50.8354L102.705 50.9109L102.669 52.8904C102.68 53.2685 102.553 53.6376 102.311 53.9285C102.107 54.1464 101.83 54.2822 101.533 54.3105C101.236 54.3387 100.938 54.2574 100.697 54.0819C100.498 53.9257 100.349 53.715 100.268 53.4755L100.253 53.4732ZM100.572 52.789C100.558 53.0224 100.631 53.2528 100.777 53.4354C100.844 53.5182 100.929 53.5847 101.026 53.63C101.122 53.6754 101.227 53.6984 101.334 53.6973C101.439 53.7022 101.544 53.6836 101.641 53.6428C101.739 53.602 101.825 53.54 101.896 53.4614C102.044 53.2821 102.123 53.0549 102.117 52.822L102.141 51.5196L100.596 51.4913L100.572 52.789Z" fill="#1D1E3D"/>
<path d="M98.1679 59.4305C97.9226 59.0221 97.8243 58.5421 97.8891 58.0701C97.9538 57.5982 98.1779 57.1625 98.5241 56.8353C98.6976 56.6884 98.9012 56.5815 99.1205 56.522C99.3398 56.4624 99.5696 56.4518 99.7934 56.4908L102.469 56.8565L102.389 57.4558L99.7109 57.0901C99.561 57.0628 99.407 57.0699 99.2603 57.1107C99.1136 57.1516 98.978 57.2252 98.8639 57.326C98.6369 57.5484 98.4905 57.8401 98.4478 58.1549C98.4051 58.4698 98.4684 58.79 98.6279 59.0648C98.7129 59.1902 98.8248 59.2951 98.9554 59.3718C99.086 59.4485 99.232 59.4952 99.3829 59.5084L102.061 59.874L101.976 60.4827L99.3003 60.1171C99.0725 60.0935 98.8528 60.0197 98.657 59.901C98.4611 59.7823 98.2941 59.6216 98.1679 59.4305V59.4305Z" fill="#1D1E3D"/>
<path d="M98.4651 64.9201C98.3921 65.0386 98.2901 65.1366 98.1687 65.2047C98.0474 65.2728 97.9106 65.3089 97.7715 65.3094L96.396 65.4062L96.5682 64.7526L97.8824 64.6488C98.1914 64.6276 98.3967 64.4247 98.4958 64.0401L98.7836 62.9431L97.1628 62.516L97.3161 61.9238L101.471 63.0115L100.971 64.9272C100.892 65.2976 100.68 65.6265 100.376 65.8521C100.126 66.0147 99.8248 66.0804 99.5294 66.037C99.2341 65.9935 98.9648 65.8439 98.7718 65.6161C98.6161 65.4168 98.5211 65.1768 98.4981 64.9249L98.4651 64.9201ZM98.937 64.328C98.8691 64.5526 98.8859 64.7943 98.9842 65.0074C99.0292 65.1026 99.095 65.1865 99.1766 65.253C99.2583 65.3196 99.3537 65.367 99.456 65.392C99.5571 65.4224 99.6639 65.4289 99.7679 65.4109C99.8719 65.3929 99.9703 65.3509 100.055 65.2882C100.243 65.1497 100.374 64.9476 100.423 64.7196L100.754 63.4597L99.2578 63.0681L98.937 64.328Z" fill="#1D1E3D"/>
<path d="M96.743 69.752L97.2148 69.9384L96.5542 71.6088L94.8414 70.9316C94.6841 70.3549 94.7164 69.7428 94.9334 69.1858C95.1363 68.5974 95.559 68.1104 96.113 67.8268C96.3787 67.6987 96.6689 67.6296 96.9638 67.6244C97.2586 67.6191 97.5511 67.6777 97.8212 67.7961C98.1057 67.8991 98.3656 68.0604 98.5841 68.2696C98.8027 68.4789 98.9752 68.7314 99.0905 69.0112C99.2077 69.3008 99.2657 69.6109 99.2613 69.9233C99.2568 70.2357 99.1899 70.544 99.0645 70.8302C98.8941 71.2956 98.6045 71.708 98.2246 72.0264L97.8047 71.6394C98.1404 71.3775 98.3962 71.0269 98.5431 70.6273C98.6375 70.4127 98.6875 70.1813 98.6899 69.9469C98.6923 69.7125 98.6472 69.4801 98.5573 69.2636C98.47 69.0563 98.3412 68.869 98.179 68.7132C98.0167 68.5574 97.8243 68.4364 97.6136 68.3576C97.4133 68.2698 97.1964 68.2262 96.9778 68.2299C96.7591 68.2335 96.5438 68.2844 96.3466 68.3789C95.9361 68.5857 95.6216 68.9433 95.469 69.3769C95.3246 69.724 95.2924 70.1076 95.3769 70.4739L96.3207 70.8444L96.743 69.752Z" fill="#1D1E3D"/>
<path d="M93.5246 72.5195L97.3585 74.4542L97.0849 74.9945L93.251 73.0551L93.5246 72.5195Z" fill="#1D1E3D"/>
<path d="M95.181 78.3874L94.8271 78.9537L90.217 78.2459L90.5827 77.6584L91.5265 77.8283L92.7061 75.9408L92.1304 75.167L92.4985 74.5771L95.181 78.3874ZM93.0175 76.3702L92.0597 77.9132L94.3883 78.3025L94.4001 78.2836L93.0175 76.3702ZM95.6128 79.4373C95.5373 79.5577 95.5821 79.6969 95.7496 79.8526L95.5137 80.0885C95.3704 79.9894 95.2635 79.846 95.2094 79.6803C95.1912 79.6142 95.1871 79.545 95.1973 79.4771C95.2074 79.4093 95.2316 79.3443 95.2683 79.2863C95.3892 79.1421 95.5441 79.0302 95.719 78.9607C95.8299 78.9129 95.9283 78.8403 96.0068 78.7484C96.0847 78.6234 96.0398 78.4818 95.8723 78.3261L96.1082 78.0902C96.2471 78.1933 96.3522 78.3354 96.4102 78.4983C96.4319 78.5648 96.4384 78.6353 96.4294 78.7047C96.4205 78.7741 96.3962 78.8406 96.3583 78.8994C96.2542 79.035 96.1169 79.1415 95.9596 79.2085L95.8629 79.2557L95.752 79.3123C95.7243 79.3268 95.6982 79.3442 95.6741 79.3642C95.6487 79.3806 95.6263 79.4014 95.6081 79.4255L95.6128 79.4373Z" fill="#1D1E3D"/>
<path d="M91.9723 82.1623C92.0272 82.7399 91.8553 83.3162 91.4929 83.7693C91.1306 84.2223 90.6061 84.5167 90.0306 84.5901C89.4417 84.6247 88.8609 84.4398 88.4003 84.0711C87.9397 83.7025 87.6321 83.1763 87.5368 82.5941C87.4807 82.0166 87.6518 81.44 88.0139 80.9867C88.3761 80.5334 88.9006 80.2391 89.4762 80.1664C90.0655 80.1312 90.6469 80.3158 91.108 80.6845C91.5691 81.0531 91.877 81.5797 91.9723 82.1623ZM88.4593 81.3389C88.3239 81.4982 88.2242 81.6846 88.1668 81.8857C88.1094 82.0867 88.0958 82.2977 88.1267 82.5044C88.2094 82.9335 88.4421 83.3192 88.7832 83.5924C89.1242 83.8655 89.5514 84.0085 89.9882 83.9955C90.1954 83.9747 90.3964 83.9128 90.5793 83.8133C90.7623 83.7139 90.9235 83.5789 91.0536 83.4162C91.1837 83.2536 91.28 83.0667 91.3369 82.8663C91.3938 82.666 91.4101 82.4563 91.3849 82.2496C91.3038 81.8195 91.0712 81.4326 90.7291 81.1595C90.3871 80.8863 89.9585 80.7449 89.521 80.7609C89.3138 80.7764 89.1123 80.836 88.93 80.9356C88.7478 81.0353 88.5889 81.1728 88.464 81.3389H88.4593Z" fill="#1D1E3D"/>
<path d="M83.479 91.7409L82.0044 87.3266L82.5376 86.8547L86.7112 88.9144L86.2158 89.3462L82.7476 87.6192L82.7334 87.631L83.9721 91.302L83.479 91.7409Z" fill="#1D1E3D"/>
<path d="M80.8836 93.6379L80.3315 94.0224L76.4009 91.5263L76.9695 91.1323L77.7716 91.6655L79.6001 90.4009L79.3807 89.4572L79.9516 89.0608L80.8836 93.6379ZM79.7039 90.927L78.2105 91.9604L80.1899 93.2462L80.2088 93.2321L79.7039 90.927Z" fill="#1D1E3D"/>
<path d="M74.6218 95.3062C74.2132 95.4488 73.7785 95.5011 73.3478 95.4595C73.1954 95.4356 73.0512 95.3747 72.9278 95.2822C72.8044 95.1896 72.7056 95.0683 72.64 94.9287C72.5499 94.7732 72.5 94.5978 72.4946 94.4182C72.4893 94.2386 72.5287 94.0606 72.6093 93.9C72.8144 93.5192 73.136 93.2141 73.5271 93.0294C73.8122 92.8829 74.1175 92.7796 74.433 92.7227C74.7429 92.6563 75.0608 92.6349 75.3768 92.659L75.398 93.1946C74.8375 93.1428 74.2742 93.256 73.7771 93.5202C73.5466 93.6332 73.3533 93.8101 73.2203 94.0298C73.1654 94.1134 73.1338 94.2102 73.1288 94.3102C73.1238 94.4102 73.1456 94.5097 73.192 94.5984C73.2347 94.6772 73.2967 94.7439 73.3722 94.7922C73.4477 94.8405 73.5343 94.8688 73.6238 94.8744C73.9337 94.8811 74.2423 94.8315 74.5345 94.7281C74.9412 94.5881 75.3732 94.5367 75.8014 94.5771C75.9567 94.6024 76.1035 94.665 76.2293 94.7595C76.355 94.854 76.4559 94.9777 76.5234 95.1198C76.6064 95.2704 76.65 95.4397 76.65 95.6117C76.65 95.7837 76.6064 95.9529 76.5234 96.1036C76.3215 96.4795 76.0049 96.7811 75.6198 96.9648C75.171 97.2109 74.6638 97.3308 74.1523 97.3116L74.065 96.7736C74.5236 96.7932 74.9788 96.6872 75.3815 96.4669C75.6182 96.3592 75.8153 96.1802 75.9454 95.955C75.9937 95.876 76.021 95.786 76.0247 95.6935C76.0284 95.601 76.0084 95.5091 75.9666 95.4265C75.925 95.3486 75.8636 95.2829 75.7887 95.2362C75.7137 95.1894 75.6278 95.1631 75.5396 95.1599C75.2276 95.1563 74.9172 95.2058 74.6218 95.3062V95.3062Z" fill="#1D1E3D"/>
<path d="M68.4807 95.9571C68.2487 96.0489 68.0328 96.1771 67.8413 96.337C67.6644 96.4796 67.5128 96.6511 67.3931 96.8442L67.0911 96.3724C67.3782 95.9442 67.79 95.6148 68.2707 95.4286C68.8406 95.1748 69.4868 95.1519 70.0732 95.3649C70.3499 95.4713 70.6002 95.6365 70.8068 95.8491C71.0133 96.0618 71.1712 96.3168 71.2694 96.5965C71.3887 96.8733 71.4491 97.1719 71.4466 97.4733C71.4442 97.7747 71.379 98.0723 71.2552 98.3471C71.1243 98.63 70.938 98.8839 70.7075 99.0938C70.4769 99.3037 70.2067 99.4653 69.9128 99.5692C69.4958 99.7409 69.0419 99.8035 68.5939 99.7509L68.5255 99.1634C68.9221 99.2391 69.3321 99.1973 69.7052 99.0431C69.9239 98.9663 70.1245 98.8452 70.2942 98.6873C70.4639 98.5293 70.5991 98.338 70.6914 98.1253C70.7796 97.9196 70.8252 97.698 70.8252 97.4742C70.8252 97.2503 70.7796 97.0287 70.6914 96.823C70.6184 96.6153 70.501 96.426 70.3474 96.2684C70.1938 96.1107 70.0076 95.9884 69.8019 95.9099C69.3712 95.7589 68.8995 95.7758 68.4807 95.9571V95.9571Z" fill="#1D1E3D"/>
<path d="M62.3538 97.7549C62.6362 97.3701 63.0419 97.0935 63.5033 96.9712C63.9647 96.8488 64.454 96.8881 64.89 97.0825C65.0927 97.1857 65.2703 97.3321 65.4101 97.5115C65.55 97.6909 65.6487 97.8988 65.6993 98.1206L66.3929 100.73L65.8078 100.886L65.1142 98.2763C65.0817 98.128 65.0166 97.9887 64.9235 97.8688C64.8305 97.7488 64.7118 97.651 64.5763 97.5827C64.2862 97.4454 63.9551 97.4227 63.649 97.519C63.3367 97.5866 63.0618 97.7705 62.8799 98.0333C62.7975 98.1604 62.7443 98.3041 62.7239 98.4542C62.7035 98.6043 62.7165 98.757 62.7619 98.9015L63.4556 101.511L62.861 101.669L62.1674 99.0596C62.1012 98.8417 62.0835 98.612 62.1157 98.3865C62.1479 98.1611 62.2292 97.9455 62.3538 97.7549V97.7549Z" fill="#1D1E3D"/>
<path d="M59.737 102.256L59.192 98.5569L56.6675 98.9296L56.585 98.3775L59.7087 97.9175L60.3363 102.164L59.737 102.256Z" fill="#1D1E3D"/>
<path d="M53.4802 102.886L52.8054 102.91L50.8401 98.6795L51.5314 98.6559L51.9183 99.5383L54.1408 99.4628L54.4616 98.5568L55.1694 98.5332L53.4802 102.886ZM53.952 99.9677L52.1401 100.029L53.1074 102.181H53.1333L53.952 99.9677Z" fill="#1D1E3D"/>
<path d="M46.4235 100.265C46.2943 100.214 46.1804 100.13 46.0924 100.022C46.0045 99.9147 45.9455 99.7864 45.9209 99.6495L45.5883 98.3118L46.263 98.3684L46.5933 99.6471C46.6665 99.9468 46.9 100.119 47.3011 100.147L48.4312 100.242L48.5728 98.5619L49.1815 98.6114L48.8229 102.891L46.8505 102.726C46.4723 102.712 46.1123 102.56 45.8383 102.299C45.7157 102.177 45.6226 102.028 45.5662 101.865C45.5098 101.701 45.4915 101.527 45.5128 101.355C45.5286 101.104 45.6264 100.866 45.7912 100.676C45.9608 100.488 46.1812 100.353 46.4258 100.287L46.4235 100.265ZM47.0864 100.629C46.8544 100.599 46.6198 100.657 46.4282 100.791C46.3414 100.853 46.2696 100.933 46.2181 101.026C46.1666 101.12 46.1368 101.223 46.1309 101.329C46.1186 101.434 46.1305 101.541 46.1656 101.641C46.2008 101.74 46.2583 101.831 46.3338 101.905C46.5041 102.065 46.7258 102.158 46.959 102.169L48.2566 102.278L48.3864 100.737L47.0864 100.629Z" fill="#1D1E3D"/>
<path d="M39.9021 99.1306L40.2348 97.8707L37.6112 97.1771L37.7528 96.6392L40.9685 97.4885L39.8714 101.641L36.717 100.808L36.861 100.261L39.4255 100.938L39.7724 99.6237L37.3847 98.9914L37.5168 98.5007L39.9021 99.1306Z" fill="#1D1E3D"/>
<path d="M31.9679 96.4598L32.5129 95.2801L30.0474 94.1476L30.2833 93.6404L33.3056 95.03L31.5102 98.9323L28.5469 97.5686L28.7828 97.0543L31.1917 98.1632L31.7603 96.9269L29.5166 95.8959L29.7313 95.424L31.9679 96.4598Z" fill="#1D1E3D"/>
<path d="M25.4395 90.8235L25.9114 91.1042L26.3832 95.1575H26.3974L28.0749 92.4089L28.5963 92.7275L26.3431 96.4127L25.8713 96.1319L25.4395 92.0621L25.4159 92.0503L23.7337 94.806L23.217 94.4899L25.4395 90.8235Z" fill="#1D1E3D"/>
<path d="M19.7134 91.9296C19.489 91.7623 19.3019 91.5499 19.1642 91.3062C19.0265 91.0624 18.9411 90.7926 18.9136 90.514C18.8709 89.9454 19.0435 89.3814 19.397 88.934C19.7505 88.4865 20.2592 88.1882 20.8223 88.0981C21.0984 88.0639 21.3786 88.0871 21.6454 88.1662C21.9121 88.2454 22.1596 88.3788 22.3724 88.5582L23.7431 89.6411L21.0842 93.0102L19.7134 91.9296ZM22.0303 88.997C21.8787 88.8712 21.7019 88.7792 21.5119 88.7271C21.3219 88.675 21.123 88.6641 20.9285 88.695C20.5176 88.7762 20.1492 89.0015 19.8896 89.3302C19.6301 89.6589 19.4965 90.0696 19.5129 90.4881C19.5277 90.6845 19.5842 90.8755 19.6785 91.0484C19.7729 91.2213 19.903 91.3721 20.0602 91.4908L20.9521 92.1986L22.9221 89.7048L22.0303 88.997Z" fill="#1D1E3D"/>
<path d="M16.3044 88.2683C15.7243 88.2542 15.1726 88.0147 14.766 87.6007C14.3595 87.1867 14.1302 86.6307 14.1267 86.0505C14.1629 85.4613 14.4161 84.9064 14.8375 84.4929C15.2588 84.0794 15.8184 83.8367 16.4082 83.8115C16.9903 83.8238 17.5447 84.0626 17.9535 84.4772C18.3624 84.8917 18.5934 85.4494 18.5976 86.0316C18.5614 86.6209 18.3082 87.1758 17.8869 87.5893C17.4655 88.0027 16.9059 88.2455 16.3162 88.2706L16.3044 88.2683ZM17.543 84.8779C17.4008 84.7243 17.2276 84.6028 17.0347 84.5214C16.8419 84.44 16.6339 84.4007 16.4247 84.4061C15.9886 84.4368 15.5777 84.6218 15.2656 84.9278C14.9535 85.2339 14.7605 85.6411 14.7213 86.0765C14.7149 86.2858 14.7508 86.4943 14.8268 86.6894C14.9028 86.8846 15.0173 87.0624 15.1635 87.2124C15.3097 87.3623 15.4846 87.4813 15.6777 87.5622C15.8709 87.6431 16.0784 87.6842 16.2878 87.6832C16.7241 87.6538 17.1355 87.4692 17.4475 87.1628C17.7595 86.8564 17.9516 86.4485 17.9889 86.0128C18 85.8027 17.9659 85.5928 17.889 85.397C17.812 85.2013 17.6941 85.0243 17.543 84.8779V84.8779Z" fill="#1D1E3D"/>
<path d="M9.39648 81.0771L13.8957 79.8975L14.3251 80.459L11.9917 84.4934L11.5954 83.972L13.5418 80.6218V80.6076L9.79521 81.608L9.39648 81.0771Z" fill="#1D1E3D"/>
<path d="M7.67201 78.3708L7.3252 77.7927L10.0714 74.0178L10.4277 74.61L9.84258 75.3768L10.9869 77.2831L11.9306 77.125L12.2868 77.7196L7.67201 78.3708ZM10.456 77.3657L9.51228 75.8109L8.09669 77.6984L8.10849 77.7172L10.456 77.3657Z" fill="#1D1E3D"/>
<path d="M6.40948 72.003C6.29262 71.5871 6.26766 71.1507 6.33634 70.7242C6.37168 70.5743 6.44238 70.4351 6.54253 70.3181C6.64267 70.2011 6.76936 70.1098 6.91201 70.0518C7.07314 69.9723 7.25153 69.9341 7.43111 69.9407C7.61069 69.9473 7.7858 69.9984 7.94067 70.0896C8.30776 70.319 8.59208 70.6595 8.75227 71.0616C8.99011 71.6514 9.07138 72.2927 8.9882 72.9231L8.45264 72.909C8.53982 72.3534 8.46358 71.7846 8.23322 71.2716C8.13606 71.0343 7.97215 70.8302 7.76136 70.6841C7.68194 70.6235 7.58769 70.5855 7.48848 70.5738C7.38927 70.5622 7.28876 70.5775 7.19749 70.6181C7.11533 70.655 7.04423 70.7127 6.99126 70.7855C6.93829 70.8584 6.90528 70.9438 6.89549 71.0333C6.86836 71.3418 6.89713 71.6528 6.98043 71.9511C7.09566 72.3657 7.11981 72.8003 7.05121 73.2251C7.0158 73.3785 6.9436 73.5209 6.84084 73.6401C6.73807 73.7593 6.60784 73.8517 6.46138 73.9093C6.30545 73.9818 6.13374 74.0137 5.96217 74.0022C5.7906 73.9906 5.62472 73.936 5.47991 73.8432C5.12073 73.6206 4.84087 73.2903 4.6801 72.8995C4.46777 72.4314 4.38546 71.9147 4.44181 71.4037L4.98445 71.3518C4.93632 71.8078 5.01212 72.2683 5.20387 72.6848C5.29746 72.9268 5.46193 73.1348 5.67573 73.2817C5.75179 73.3343 5.83987 73.3668 5.93184 73.3763C6.0238 73.3858 6.11667 73.3719 6.20186 73.336C6.28242 73.3 6.35197 73.2432 6.40337 73.1715C6.45478 73.0998 6.4862 73.0157 6.49441 72.9278C6.51961 72.617 6.49087 72.3041 6.40948 72.003Z" fill="#1D1E3D"/>
<path d="M6.1525 65.8359C6.07699 65.5987 5.96301 65.3755 5.81512 65.1753C5.68606 64.9921 5.52644 64.8325 5.34326 64.7034L5.84107 64.4321C6.25053 64.7484 6.55081 65.1848 6.69986 65.6802C6.91709 66.2648 6.89933 66.9109 6.65031 67.4827C6.52566 67.7519 6.34433 67.9909 6.11874 68.1835C5.89316 68.3761 5.62863 68.5177 5.34326 68.5987C5.0594 68.7001 4.7575 68.7412 4.45686 68.7192C4.15623 68.6973 3.86349 68.6128 3.59736 68.4713C3.32379 68.3227 3.08267 68.1209 2.88819 67.8778C2.69371 67.6347 2.54979 67.3552 2.46489 67.0557C2.31939 66.6286 2.28529 66.1714 2.3658 65.7274L2.95799 65.6944C2.85438 66.087 2.86915 66.5015 3.00046 66.8858C3.06332 67.109 3.17134 67.317 3.31785 67.4968C3.46436 67.6766 3.64622 67.8244 3.85217 67.931C4.05177 68.0325 4.26995 68.0924 4.49343 68.107C4.71691 68.1216 4.94103 68.0906 5.15215 68.0159C5.36465 67.956 5.56151 67.8505 5.72899 67.7066C5.89647 67.5628 6.03054 67.3841 6.12183 67.1831C6.30706 66.7551 6.31807 66.2718 6.1525 65.8359V65.8359Z" fill="#1D1E3D"/>
<path d="M4.74848 59.6071C5.12849 59.9018 5.38165 60.3305 5.45628 60.8056C5.56855 61.2728 5.49674 61.7654 5.25574 62.1811C5.14027 62.3766 4.98318 62.5444 4.79562 62.6724C4.60806 62.8004 4.39462 62.8856 4.17045 62.9219L1.52094 63.4433L1.40298 62.8511L4.05485 62.325C4.20491 62.3017 4.34792 62.2454 4.47358 62.1601C4.59925 62.0748 4.70442 61.9627 4.78151 61.8319C4.93506 61.5501 4.97877 61.2215 4.9042 60.9094C4.85269 60.5931 4.68429 60.3077 4.43234 60.1096C4.31065 60.0195 4.17069 59.9572 4.02232 59.927C3.87394 59.8968 3.72075 59.8996 3.57355 59.935L0.931116 60.4611L0.810791 59.8595L3.4603 59.3334C3.68195 59.2818 3.91224 59.2796 4.13485 59.3269C4.35746 59.3742 4.56695 59.4698 4.74848 59.6071V59.6071Z" fill="#1D1E3D"/>
<path d="M0.430908 56.7146L4.15626 56.4055L3.94628 53.8622L4.50072 53.8174L4.76261 56.9623L0.480454 57.3162L0.430908 56.7146Z" fill="#1D1E3D"/>
<path d="M0.195068 50.4201L0.216302 49.7477L4.56216 48.0466L4.54328 48.7544L3.63731 49.0847L3.56889 51.3072L4.45363 51.687L4.44183 52.3736L0.195068 50.4201ZM3.07815 51.0807L3.13241 49.2664L0.924096 50.0945V50.1205L3.07815 51.0807Z" fill="#1D1E3D"/>
<path d="M3.26218 43.5637C3.31997 43.4359 3.4099 43.3252 3.5232 43.2425C3.6365 43.1598 3.76929 43.1079 3.90864 43.0918L5.26524 42.8559L5.16615 43.5259L3.87089 43.7737C3.56418 43.8256 3.38251 44.0497 3.32588 44.4437L3.15837 45.5667L4.82641 45.8027L4.73675 46.4066L0.48999 45.7743L0.782545 43.8161C0.820421 43.4392 0.994989 43.0893 1.27328 42.8323C1.40282 42.7184 1.55667 42.6356 1.72309 42.5902C1.88951 42.5448 2.06409 42.538 2.23352 42.5704C2.48273 42.6005 2.71458 42.7135 2.89177 42.8913C3.07102 43.0764 3.19166 43.3103 3.23859 43.5637H3.26218ZM2.85874 44.203C2.90278 43.9733 2.8599 43.7353 2.73842 43.5354C2.68259 43.4444 2.6069 43.3672 2.51701 43.3095C2.42713 43.2519 2.32537 43.2154 2.21937 43.2027C2.11515 43.185 2.00829 43.1908 1.90663 43.2198C1.80497 43.2488 1.7111 43.3002 1.6319 43.3702C1.46162 43.5294 1.35441 43.7447 1.32991 43.9766L1.1388 45.2577L2.66764 45.4936L2.85874 44.203Z" fill="#1D1E3D"/>
<path d="M6.56516 38.0335C6.55273 38.0838 6.52966 38.1309 6.49751 38.1716C6.46537 38.2123 6.42488 38.2457 6.37877 38.2694C6.33494 38.2927 6.2869 38.307 6.23747 38.3114C6.18804 38.3159 6.13822 38.3104 6.09094 38.2954C6.04324 38.2824 5.99892 38.2592 5.96104 38.2274C5.92317 38.1957 5.89262 38.1561 5.87152 38.1114C5.8478 38.0681 5.83307 38.0206 5.8282 37.9715C5.82334 37.9224 5.82844 37.8729 5.84321 37.8259C5.85723 37.7781 5.88075 37.7336 5.91237 37.695C5.94399 37.6565 5.98306 37.6248 6.02723 37.6017C6.06933 37.5763 6.11638 37.5603 6.16522 37.5546C6.21405 37.5489 6.26354 37.5537 6.31035 37.5687C6.35849 37.5827 6.40324 37.6065 6.44179 37.6386C6.48035 37.6707 6.5119 37.7103 6.53449 37.7551C6.55827 37.797 6.57326 37.8433 6.57853 37.8911C6.58381 37.939 6.57926 37.9874 6.56516 38.0335V38.0335Z" fill="#1D1E3D"/>
</svg>
