<svg width="116" height="103" viewBox="0 0 116 103" fill="none" xmlns="http://www.w3.org/2000/svg">
<path fill-rule="evenodd" clip-rule="evenodd" d="M25.4872 99.9003C25.369 99.5563 25.1207 99.143 24.7502 98.8414C24.1996 98.3832 23.6405 98.4112 23.2978 98.8328C22.9764 99.2247 23.0197 99.6295 23.4006 100.314C23.883 101.114 24.011 101.812 23.529 102.401C23.0001 103.055 22.066 103.094 21.2588 102.427C20.8347 102.078 20.6052 101.719 20.5068 101.463L21.0165 101.149C21.0876 101.33 21.2674 101.683 21.6399 101.997C22.2101 102.46 22.7048 102.298 22.9382 102.016C23.2551 101.622 23.1606 101.22 22.7708 100.525C22.289 99.6726 22.2101 99.0377 22.7107 98.4244C23.2382 97.7764 24.1759 97.6063 25.1549 98.4132C25.5577 98.7427 25.894 99.2379 25.9927 99.5646L25.4872 99.9003Z" fill="#009EE0"/>
<path fill-rule="evenodd" clip-rule="evenodd" d="M15.0811 92.312C16.4734 91.0808 17.9554 91.2829 18.8575 92.3203C19.7931 93.3966 19.6219 94.8795 18.3992 95.9537C17.1134 97.0855 15.5739 97.0211 14.6292 95.9359C13.6584 94.8276 13.8816 93.3666 15.0811 92.312ZM17.898 95.4025C18.7605 94.6408 19.1273 93.4912 18.4075 92.6648C17.6792 91.8341 16.5078 92.032 15.5868 92.8417C14.7852 93.5516 14.3121 94.7075 15.0767 95.5853C15.8287 96.4527 17.0086 96.188 17.898 95.4025Z" fill="#009EE0"/>
<path fill-rule="evenodd" clip-rule="evenodd" d="M12.2835 83.4919C12.5256 83.6464 12.907 84.0082 13.2497 84.5721C14.04 85.8761 13.811 87.3586 12.3076 88.2864C10.8681 89.1687 9.29779 88.7854 8.42826 87.3567C8.07691 86.7801 7.98033 86.3432 7.96313 86.1341L8.53537 85.9834C8.56553 86.2718 8.67871 86.6506 8.9144 87.034C9.57199 88.1097 10.6966 88.4094 11.9 87.6669C13.027 86.9735 13.3525 85.8805 12.6691 84.7569C12.4486 84.3994 12.1485 84.0745 11.8876 83.9023L12.2835 83.4919Z" fill="#009EE0"/>
<path fill-rule="evenodd" clip-rule="evenodd" d="M5.15234 80.6711L10.083 78.5107L10.3597 79.152L5.42848 81.3148L5.15234 80.6711Z" fill="#009EE0"/>
<path fill-rule="evenodd" clip-rule="evenodd" d="M5.11673 71.7795L5.69285 73.7995L7.55643 73.2596L6.9143 71.0109L7.47123 70.8469L8.30846 73.7656L3.14192 75.2637L2.33398 72.4571L2.89524 72.2975L3.50798 74.4324L5.14267 73.959L4.56178 71.9361L5.11673 71.7795Z" fill="#009EE0"/>
<path fill-rule="evenodd" clip-rule="evenodd" d="M1.23644 66.8076C1.12713 66.3946 1.01759 65.8976 0.95574 65.3447C0.839775 64.35 0.990018 63.6137 1.37123 63.0933C1.74827 62.5683 2.33302 62.213 3.19808 62.1119C4.07219 62.0086 4.81529 62.1936 5.36592 62.6415C5.92514 63.0823 6.2912 63.881 6.41143 64.9267C6.4713 65.4218 6.49465 65.8352 6.49465 66.1925L1.23644 66.8076ZM5.88247 65.5597C5.89544 65.3791 5.87352 65.1251 5.83924 64.8534C5.66794 63.3727 4.75125 62.6671 3.30535 62.8328C2.04596 62.9707 1.32408 63.7859 1.4997 65.2516C1.54263 65.6111 1.60463 65.8779 1.6645 66.0585L5.88247 65.5597Z" fill="#009EE0"/>
<path fill-rule="evenodd" clip-rule="evenodd" d="M4.25224 56.1735L5.90996 56.821L5.87564 57.5421L0.595703 55.4327L0.638931 54.5893L6.10553 53.0269L6.06921 53.7694L4.34674 54.2581L4.25224 56.1735ZM3.79794 54.3742L2.22397 54.8261C1.86805 54.9225 1.54478 54.9895 1.2298 55.0499V55.0716C1.54478 55.1637 1.86805 55.2695 2.1897 55.3945L3.71432 55.9965L3.79794 54.3742Z" fill="#009EE0"/>
<path fill-rule="evenodd" clip-rule="evenodd" d="M1.57178 47.2513C1.60596 46.8208 1.66811 46.3151 1.79023 45.7751C2.01529 44.7981 2.39651 44.1542 2.92775 43.7864C3.46338 43.4159 4.13119 43.2826 4.98154 43.4746C5.83632 43.6721 6.47906 44.0941 6.8473 44.7032C7.22876 45.3061 7.30836 46.1771 7.07882 47.2038C6.96926 47.6903 6.8561 48.0905 6.73611 48.4265L1.57178 47.2513ZM6.3698 47.626C6.43826 47.4576 6.50245 47.2126 6.56455 46.9458C6.89042 45.4912 6.26254 44.5178 4.84239 44.1949C3.60671 43.9027 2.65976 44.4277 2.33434 45.8674C2.2552 46.2181 2.22504 46.4897 2.22316 46.6785L6.3698 47.626Z" fill="#009EE0"/>
<path fill-rule="evenodd" clip-rule="evenodd" d="M7.95524 36.0345L7.16703 37.9759L8.96011 38.716L9.84049 36.5508L10.3803 36.7704L9.23854 39.5812L4.2583 37.5371L5.35504 34.834L5.89727 35.0579L5.06151 37.1109L6.63384 37.7584L7.42409 35.8152L7.95524 36.0345Z" fill="#009EE0"/>
<path fill-rule="evenodd" clip-rule="evenodd" d="M11.231 24.6134C11.3598 24.334 11.6125 23.9207 11.9039 23.5329C12.3235 22.9763 12.69 22.6899 13.1097 22.5866C13.4437 22.485 13.795 22.5477 14.138 22.8035C14.5492 23.116 14.7037 23.6707 14.5323 24.2478L14.5405 24.2585C14.952 23.9249 15.6479 23.7011 16.2887 24.1872C16.6569 24.4671 16.8283 24.8265 16.8712 25.208C16.9184 25.7153 16.6829 26.2966 16.1515 27.0045C15.8624 27.3855 15.6116 27.661 15.4511 27.8287L11.231 24.6134ZM13.4033 25.3969L13.7847 24.8888C14.2257 24.3034 14.1828 23.7271 13.7693 23.4082C13.266 23.0254 12.7797 23.2602 12.3555 23.8216C12.1611 24.0799 12.073 24.2436 12.0239 24.3444L13.4033 25.3969ZM15.4594 26.9593C15.5603 26.8647 15.6866 26.7099 15.8384 26.5165C16.2715 25.9374 16.4619 25.2461 15.8384 24.7685C15.252 24.325 14.6306 24.6479 14.1721 25.2547L13.825 25.7198L15.4594 26.9593Z" fill="#009EE0"/>
<path fill-rule="evenodd" clip-rule="evenodd" d="M20.9347 17.7813L19.4332 19.245L20.7887 20.6437L22.4596 19.0125L22.8643 19.4342L20.6948 21.552L16.9482 17.6696L19.0323 15.6377L19.4369 16.0556L17.8482 17.6051L19.0343 18.8317L20.5362 17.3681L20.9347 17.7813Z" fill="#009EE0"/>
<path fill-rule="evenodd" clip-rule="evenodd" d="M26.509 16.3812L23.4309 11.9478L24.0523 11.5086L27.025 12.7632C27.713 13.0542 28.2912 13.3419 28.8161 13.6479L28.8245 13.6306C28.3596 13.0796 27.9741 12.5462 27.4944 11.8573L26.207 10.0026L26.7423 9.62305L29.8204 14.0612L29.2443 14.4614L26.282 13.1919C25.6333 12.9161 24.9841 12.615 24.4313 12.2921L24.4143 12.3115C24.836 12.8515 25.2195 13.3726 25.7316 14.1106L27.0444 16.0065L26.509 16.3812Z" fill="#009EE0"/>
<path fill-rule="evenodd" clip-rule="evenodd" d="M35.6337 8.06061L33.7469 8.96882L34.5841 10.7242L36.6876 9.71336L36.9379 10.2423L34.2118 11.5508L31.8896 6.67844L34.5071 5.41748L34.76 5.94694L32.7677 6.90456L33.5025 8.44576L35.3853 7.53928L35.6337 8.06061Z" fill="#009EE0"/>
<path fill-rule="evenodd" clip-rule="evenodd" d="M39.7942 3.35959L42.5685 2.51367L42.7374 3.07103L40.6296 3.71914L41.1504 5.43853L43.1017 4.84463L43.2668 5.39581L41.3195 5.9897L42.0286 8.33109L41.3646 8.53779L39.7942 3.35959Z" fill="#009EE0"/>
<path fill-rule="evenodd" clip-rule="evenodd" d="M48.6346 1.20776L49.5259 6.54216L48.838 6.65641L47.9495 1.32407L48.6346 1.20776Z" fill="#009EE0"/>
<path fill-rule="evenodd" clip-rule="evenodd" d="M58.2879 5.66696C58.0396 5.80243 57.532 5.95538 56.8786 5.97219C55.3617 6.01971 54.1925 5.0816 54.1409 3.31254C54.0898 1.62111 55.1988 0.441547 56.8656 0.389986C57.534 0.372765 57.962 0.501951 58.1459 0.596538L57.9968 1.17117C57.7307 1.04893 57.3512 0.962317 56.9041 0.975654C55.6447 1.01372 54.8352 1.84488 54.8754 3.26518C54.9119 4.59099 55.6959 5.41724 57.0064 5.3783C57.4247 5.36527 57.8528 5.26199 58.131 5.12059L58.2879 5.66696Z" fill="#009EE0"/>
<path fill-rule="evenodd" clip-rule="evenodd" d="M66.0747 3.95363L64.0029 3.69148L63.7566 5.62799L66.0692 5.92101L65.9987 6.50172L62.9961 6.12296L63.6681 0.756348L66.552 1.12182L66.4785 1.70529L64.2832 1.42746L64.0715 3.1192L66.1468 3.38165L66.0747 3.95363Z" fill="#009EE0"/>
<path fill-rule="evenodd" clip-rule="evenodd" d="M70.6418 7.44875L72.1737 2.26611L72.8964 2.48181L73.775 5.59569C73.983 6.31651 74.1153 6.95384 74.2057 7.55617H74.2245C74.3686 6.84607 74.5394 6.20931 74.7733 5.39956L75.4156 3.23054L76.0434 3.42017L74.514 8.60179L73.8351 8.40449L72.9738 5.28351C72.7871 4.59907 72.6182 3.90625 72.5239 3.26498H72.4961C72.3441 3.9319 72.1771 4.55824 71.9218 5.42128L71.2712 7.63389L70.6418 7.44875Z" fill="#009EE0"/>
<path fill-rule="evenodd" clip-rule="evenodd" d="M82.2133 6.60901L80.7402 5.88625L81.0016 5.35229L84.5852 7.10397L84.3239 7.63374L82.8491 6.9147L80.7501 11.2448L80.1189 10.9391L82.2133 6.60901Z" fill="#009EE0"/>
<path fill-rule="evenodd" clip-rule="evenodd" d="M89.7554 13.7395L88.0314 12.5494L86.9366 14.1567L88.8539 15.4827L88.5215 15.9645L86.0332 14.243L89.0789 9.79272L91.4715 11.441L91.1437 11.9228L89.3213 10.666L88.3562 12.0737L90.0772 13.2657L89.7554 13.7395Z" fill="#009EE0"/>
<path fill-rule="evenodd" clip-rule="evenodd" d="M100.213 19.4011C100.536 19.6854 100.899 20.0428 101.252 20.4645C101.892 21.2306 102.179 21.9237 102.143 22.5689C102.117 23.2232 101.826 23.839 101.159 24.407C100.487 24.9753 99.763 25.2333 99.0603 25.1647C98.3534 25.1048 97.6085 24.6439 96.9339 23.839C96.6165 23.4644 96.3651 23.1244 96.1709 22.8296L100.213 19.4011ZM97.0318 23.0167C97.1157 23.1738 97.2766 23.3739 97.4495 23.5851C98.4071 24.7258 99.5664 24.8072 100.671 23.8624C101.644 23.0472 101.797 21.9711 100.851 20.8473C100.62 20.5718 100.423 20.3827 100.269 20.271L97.0318 23.0167Z" fill="#009EE0"/>
<path fill-rule="evenodd" clip-rule="evenodd" d="M105.289 31.2619L104.216 29.4627L102.556 30.4612L103.747 32.4713L103.246 32.7724L101.695 30.1621L106.315 27.3877L107.808 29.8973L107.305 30.199L106.174 28.2894L104.711 29.1635L105.784 30.969L105.289 31.2619Z" fill="#009EE0"/>
<path fill-rule="evenodd" clip-rule="evenodd" d="M108.076 41.9062C107.978 42.2616 107.949 42.7474 108.085 43.208C108.28 43.8929 108.755 44.1936 109.276 44.0412C109.763 43.9014 109.957 43.5441 110.024 42.7607C110.081 41.8309 110.366 41.1768 111.096 40.9682C111.901 40.7334 112.69 41.2327 112.984 42.2439C113.131 42.7736 113.122 43.1953 113.055 43.4667L112.457 43.4388C112.501 43.2387 112.557 42.8508 112.42 42.3779C112.217 41.6717 111.718 41.5211 111.367 41.6243C110.884 41.7666 110.732 42.1471 110.667 42.9459C110.576 43.9207 110.287 44.491 109.526 44.7103C108.728 44.9389 107.858 44.5509 107.511 43.3245C107.365 42.8256 107.365 42.2311 107.465 41.8996L108.076 41.9062Z" fill="#009EE0"/>
<path fill-rule="evenodd" clip-rule="evenodd" d="M111.937 52.2693L111.664 50.1819L109.741 50.4356L110.041 52.7559L109.467 52.8333L109.073 49.8202L114.404 49.1187L114.781 52.0108L114.204 52.0887L113.915 49.8849L112.235 50.1086L112.503 52.192L111.937 52.2693Z" fill="#009EE0"/>
<path fill-rule="evenodd" clip-rule="evenodd" d="M109.724 57.5786L115.1 57.744L115.077 58.5042L112.307 60.1544C111.662 60.5312 111.082 60.8326 110.53 61.0691L110.533 61.0868C111.253 61.0411 111.906 61.0477 112.745 61.0755L114.998 61.1424L114.974 61.8009L109.604 61.633L109.624 60.9293L112.399 59.3C113.012 58.9387 113.637 58.5984 114.226 58.3443L114.22 58.319C113.544 58.3404 112.894 58.3359 112.003 58.3059L109.705 58.2371L109.724 57.5786Z" fill="#009EE0"/>
<path fill-rule="evenodd" clip-rule="evenodd" d="M114.144 68.4528L111.94 67.9967L111.413 70.5555L113.615 71.0134L113.475 71.7063L108.205 70.6094L108.347 69.9205L110.82 70.4328L111.344 67.8716L108.875 67.3594L109.018 66.6729L114.29 67.7725L114.144 68.4528Z" fill="#009EE0"/>
<path fill-rule="evenodd" clip-rule="evenodd" d="M107.588 80.7733C105.87 80.0802 105.38 78.6683 105.893 77.3859C106.425 76.0599 107.817 75.5434 109.327 76.1566C110.915 76.7958 111.548 78.2078 111.015 79.5467C110.469 80.9068 109.07 81.3756 107.588 80.7733ZM109.064 76.8563C107.997 76.4256 106.815 76.6199 106.404 77.6335C105.992 78.6639 106.698 79.6196 107.834 80.0802C108.824 80.4851 110.068 80.3855 110.5 79.3032C110.931 78.2253 110.161 77.2952 109.064 76.8563Z" fill="#009EE0"/>
<path fill-rule="evenodd" clip-rule="evenodd" d="M107.359 86.7624C107.235 87.1005 107.005 87.5498 106.755 87.961C106.368 88.5999 106.001 88.9317 105.566 89.0605C105.221 89.1683 104.828 89.1038 104.474 88.8842C103.87 88.5097 103.698 87.8795 103.834 87.2914L103.816 87.2791C103.476 87.5631 103.022 87.5668 102.48 87.3864C101.748 87.1413 101.238 86.982 101.002 86.9665L101.379 86.3491C101.559 86.3599 102.01 86.5001 102.662 86.7189C103.376 86.973 103.765 86.8762 104.115 86.3467L104.46 85.7896L102.474 84.5626L102.837 83.9688L107.359 86.7624ZM104.911 86.0648L104.536 86.6718C104.145 87.3111 104.245 87.9266 104.769 88.2515C105.359 88.6127 105.883 88.342 106.271 87.7221C106.451 87.4291 106.544 87.2103 106.579 87.1005L104.911 86.0648Z" fill="#009EE0"/>
<path fill-rule="evenodd" clip-rule="evenodd" d="M98.9464 92.5112L98.032 90.9746L98.5028 90.4324L101.371 95.3564L100.822 95.9931L95.5552 93.8496L96.0391 93.2812L97.695 93.9616L98.9464 92.5112ZM98.2023 94.2113L99.7159 94.8286C100.06 94.9666 100.354 95.1191 100.643 95.2613L100.654 95.2486C100.46 94.9813 100.268 94.6974 100.092 94.4025L99.2588 92.9805L98.2023 94.2113Z" fill="#009EE0"/>
<path fill-rule="evenodd" clip-rule="evenodd" d="M92.8276 97.6468C92.4681 97.7025 92.0181 97.8709 91.649 98.1807C91.1081 98.6369 91.028 99.1963 91.3792 99.6138C91.701 100.001 92.1099 100.04 92.8441 99.7861C93.7148 99.4504 94.4239 99.4504 94.9153 100.04C95.4536 100.683 95.323 101.611 94.5204 102.287C94.0962 102.648 93.7098 102.803 93.4405 102.853L93.2235 102.291C93.4182 102.252 93.7962 102.147 94.1708 101.831C94.7319 101.355 94.6634 100.839 94.4275 100.552C94.1038 100.167 93.6924 100.184 92.9389 100.449C92.0181 100.763 91.3792 100.729 90.8691 100.122C90.3343 99.4802 90.3392 98.5249 91.3108 97.7024C91.7047 97.3629 92.2455 97.1199 92.5922 97.0874L92.8276 97.6468Z" fill="#009EE0"/>
<path fill-rule="evenodd" clip-rule="evenodd" d="M81.3989 41.0835L66.8224 26.6301L61.2744 34.494L81.3989 41.0835Z" fill="#0076BE"/>
<path fill-rule="evenodd" clip-rule="evenodd" d="M57.5604 19.1047L53.669 16.0015L31.9597 24.8787L49.2669 30.554L57.5604 19.1047Z" fill="#0076BE"/>
<path fill-rule="evenodd" clip-rule="evenodd" d="M81.3991 22.7893L59.9787 15.7629L57.5557 19.105L66.8181 26.6326L81.3991 22.7893Z" fill="#0076BE"/>
<path fill-rule="evenodd" clip-rule="evenodd" d="M49.2646 30.5513L58.1176 58.0333L61.2673 34.4932L49.2646 30.5513Z" fill="#0076BE"/>
<path fill-rule="evenodd" clip-rule="evenodd" d="M60.3778 13.5043L57.2562 10.1343L53.9045 13.2713L57.0227 16.6421L60.3778 13.5043Z" fill="#0076BE"/>
<path fill-rule="evenodd" clip-rule="evenodd" d="M49.2546 30.5515L31.0669 40.0159L36.799 47.7464L49.2546 30.5515Z" fill="#0057A4"/>
<path fill-rule="evenodd" clip-rule="evenodd" d="M21.0827 46.5461L16.9446 49.3005L18.643 72.7885L29.3555 58.0061L21.0827 46.5461Z" fill="#0057A4"/>
<path fill-rule="evenodd" clip-rule="evenodd" d="M31.9364 24.8948L18.6641 43.196L21.0801 46.545L31.0643 40.0194L31.9364 24.8948Z" fill="#0057A4"/>
<path fill-rule="evenodd" clip-rule="evenodd" d="M36.7986 47.7468L29.355 58.0017L58.1091 58.0361L36.7986 47.7468Z" fill="#0057A4"/>
<path fill-rule="evenodd" clip-rule="evenodd" d="M16.6526 42.1208L12.5012 44.0617L14.4314 48.2329L18.5843 46.2956L16.6526 42.1208Z" fill="#0057A4"/>
<path fill-rule="evenodd" clip-rule="evenodd" d="M29.3523 58.0129L32.6896 78.3163L41.7781 75.2217L29.3523 58.0129Z" fill="#00428A"/>
<path fill-rule="evenodd" clip-rule="evenodd" d="M35.781 89.8743L37.1132 94.6777L59.8677 100.316L49.1877 85.5056L35.781 89.8743Z" fill="#00428A"/>
<path fill-rule="evenodd" clip-rule="evenodd" d="M18.6458 72.8118L31.8668 91.1437L35.7845 89.8738L32.6934 78.3168L18.6458 72.8118Z" fill="#00428A"/>
<path fill-rule="evenodd" clip-rule="evenodd" d="M41.7825 75.2239L49.192 85.5064L58.1111 58.0459L41.7825 75.2239Z" fill="#00428A"/>
<path fill-rule="evenodd" clip-rule="evenodd" d="M30.2271 92.7356L30.78 97.3087L35.3255 96.7445L34.7725 92.1799L30.2271 92.7356Z" fill="#00428A"/>
<path fill-rule="evenodd" clip-rule="evenodd" d="M49.1987 85.5102L69.4447 88.6L69.331 78.9568L49.1987 85.5102Z" fill="#009EE0"/>
<path fill-rule="evenodd" clip-rule="evenodd" d="M81.343 89.2202L86.3045 89.4269L98.672 69.425L81.3592 75.0553L81.343 89.2202Z" fill="#009EE0"/>
<path fill-rule="evenodd" clip-rule="evenodd" d="M59.8953 100.324L81.337 93.3496L81.3423 89.2198L69.4458 88.5999L59.8953 100.324Z" fill="#009EE0"/>
<path fill-rule="evenodd" clip-rule="evenodd" d="M69.3349 78.954L81.3611 75.0525L58.1194 58.0461L69.3349 78.954Z" fill="#009EE0"/>
<path fill-rule="evenodd" clip-rule="evenodd" d="M82.3398 95.4084L86.8295 96.2931L87.7097 91.7762L83.2199 90.8894L82.3398 95.4084Z" fill="#009EE0"/>
<path fill-rule="evenodd" clip-rule="evenodd" d="M81.3633 75.0447L90.5423 56.653L81.3806 53.782L81.3633 75.0447Z" fill="#008BD0"/>
<path fill-rule="evenodd" clip-rule="evenodd" d="M94.8015 45.4778L96.5384 40.8014L81.4264 22.8037L81.4036 41.0922L94.8015 45.4778Z" fill="#008BD0"/>
<path fill-rule="evenodd" clip-rule="evenodd" d="M98.687 69.4033L98.7178 46.7636L94.8019 45.4807L90.5437 56.6544L98.687 69.4033Z" fill="#008BD0"/>
<path fill-rule="evenodd" clip-rule="evenodd" d="M81.3992 41.0933L58.1177 58.0434L81.3758 53.7818L81.3992 41.0933Z" fill="#008BD0"/>
<path fill-rule="evenodd" clip-rule="evenodd" d="M100.971 46.4435L103.197 42.4211L99.1933 40.1855L96.97 44.2098L100.971 46.4435Z" fill="#008BD0"/>
</svg>
