<svg width="142" height="103" viewBox="0 0 142 103" fill="none" xmlns="http://www.w3.org/2000/svg">
<path fill-rule="evenodd" clip-rule="evenodd" d="M61.593 73.9626C59.1817 75.858 56.2537 77.0641 53.1535 76.8918C45.0584 76.7195 38.3412 72.7565 34.8966 65.175C33.3464 61.5566 33.1742 56.5598 34.0354 51.9075C36.9634 38.1231 49.5365 29.3356 62.7986 29.5079C79.1609 29.8525 82.9501 44.3261 81.9167 52.5968C78.8164 78.0979 55.5647 92.3993 35.4133 92.3993V91.5377C54.7036 91.3654 73.9939 74.8241 74.855 51.5629C75.0273 45.0153 73.6494 40.0185 69.8602 35.5385C67.9656 33.4709 65.3821 32.2647 61.7652 32.0924C54.8758 32.0924 49.5365 36.4001 45.5751 41.7415C42.8194 45.5322 42.1304 48.2891 41.097 52.4245C40.2358 56.2152 40.0636 58.4551 40.7525 62.2458C41.4415 66.2089 43.1638 68.9657 45.0584 71.0334C47.2975 73.4457 50.2255 74.8241 53.8424 74.9964C56.4259 75.1687 59.8706 74.6518 61.9374 72.9288L61.593 73.9626Z" fill="#70A83B"/>
<path fill-rule="evenodd" clip-rule="evenodd" d="M2.86101 82.4056H5.789C10.4393 82.4056 14.2285 84.6455 14.2285 91.0208C14.2285 97.5684 10.4393 99.9807 4.58336 99.9807H2.86101V82.4056V82.4056ZM0.794189 101.876H4.41112C11.3005 101.876 16.2953 98.9469 16.2953 91.1931C16.2953 84.9901 13.3673 80.5102 5.96124 80.5102H0.794189V101.876ZM20.6012 101.876H31.1075V99.9807H22.668V91.71H30.4186V89.8147H22.668V82.2332H30.7631V80.3379H20.6012V101.876V101.876ZM72.7884 81.1994H70.7216V97.0515C70.7216 99.1192 70.0326 101.015 67.6213 101.015C67.1046 101.015 66.2435 100.842 65.7267 100.67V102.565C66.4157 102.738 67.2769 102.91 67.7936 102.91C71.2383 102.91 72.6161 100.325 72.6161 97.0515V81.1994H72.7884ZM91.2175 81.1994H89.1507V95.1561C89.1507 98.6022 87.2561 101.187 83.6392 101.187C80.0222 101.187 78.1277 98.6022 78.1277 95.1561V81.1994H76.0608V95.1561C76.0608 101.531 80.5389 102.91 83.6392 102.91C86.7394 102.91 91.2175 101.359 91.2175 95.1561V81.1994ZM94.49 102.565H104.824V100.67H96.5568V81.1994H94.49V102.565ZM106.374 102.565H108.441V92.5716H118.947V102.565H121.014V81.1994H118.947V90.6762H108.441V81.1994H106.374V102.565ZM123.253 91.8823C123.253 98.4299 126.353 102.91 132.382 102.91C138.41 102.91 141.51 98.4299 141.51 91.8823C141.51 86.024 138.582 80.8548 132.382 80.8548C126.181 80.8548 123.253 86.024 123.253 91.8823ZM132.382 82.5779C137.204 82.5779 139.443 87.2301 139.443 91.71C139.443 96.19 137.204 100.842 132.382 100.842C127.559 100.842 125.32 96.19 125.32 91.71C125.32 87.2301 127.559 82.5779 132.382 82.5779Z" fill="#305F31"/>
<path fill-rule="evenodd" clip-rule="evenodd" d="M0.794189 72.5845H6.30571V37.9511H6.47794L24.0459 72.5845H31.1075V30.542H25.596V64.3138H25.4238L8.20029 30.542H0.794189V72.5845ZM116.364 30.542H110.508L98.2791 67.243H98.1069L86.2227 30.542H80.0222L94.6622 72.5845H101.552L116.364 30.542ZM119.292 72.5845H140.993V67.243H124.803V53.4586H139.616V48.1171H124.803V35.8835H140.993V30.542H119.292V72.5845Z" fill="#305F31"/>
<path fill-rule="evenodd" clip-rule="evenodd" d="M0.794189 22.6158H2.86101V12.4498H13.3673V22.6158H15.4342V1.07765H13.3673V10.5544H2.86101V1.07765H0.794189V22.6158ZM20.0845 11.416C20.0845 17.9636 23.1847 22.4435 29.2129 22.4435C35.2412 22.4435 38.3414 17.9636 38.3414 11.416C38.3414 5.55758 35.4134 0.388428 29.2129 0.388428C22.8403 0.388428 19.9123 5.55758 20.0845 11.416ZM29.2129 2.11148C34.0355 2.11148 36.2746 6.76372 36.2746 11.416C36.2746 15.8959 34.0355 20.7204 29.2129 20.7204C24.3904 20.7204 22.1513 16.0682 22.1513 11.416C22.1513 6.93603 24.2181 2.11148 29.2129 2.11148ZM43.8529 21.582C44.8863 22.0989 46.6087 22.4435 48.5033 22.4435C51.7757 22.4435 55.3927 20.7204 55.3927 16.4128C55.3927 10.2098 45.7475 10.0375 45.7475 5.72989C45.7475 2.973 48.1588 2.11148 50.2256 2.11148C51.6035 2.11148 53.1536 2.45609 54.0148 2.97301L54.3592 1.07765C52.9814 0.560732 51.259 0.388428 50.2256 0.388428C46.6087 0.388428 43.6807 2.45609 43.6807 5.90219C43.6807 11.5883 53.3258 12.1052 53.3258 16.2405C53.3258 19.342 51.259 20.7204 48.6755 20.7204C46.7809 20.7204 45.2308 20.2035 44.0251 19.5143L43.8529 21.582ZM61.5931 22.6158H63.6599V13.3113H66.5879C70.3771 13.3113 73.3051 11.2437 73.3051 7.28063C73.3051 3.14531 70.7216 1.24995 66.9324 1.24995H61.7653V22.6158H61.5931ZM63.6599 2.97301H66.9324C69.5159 2.97301 71.066 4.52375 71.066 7.28063C71.066 11.0713 68.138 11.5883 65.0378 11.5883H63.6599V2.97301ZM78.9888 22.6158H81.0557V1.07765H78.9888V22.6158ZM92.9399 22.6158H95.0067V2.97301H101.207V1.07765H86.9116V2.97301H93.1121V22.6158H92.9399ZM104.824 22.6158H106.891L109.13 16.9297H119.636L121.875 22.6158H123.942L115.675 1.07765H113.264L104.824 22.6158ZM118.947 14.8621H109.819L114.297 2.97301L118.947 14.8621ZM130.487 22.6158H140.993V20.7204H132.554V1.07765H130.487V22.6158V22.6158Z" fill="#305F31"/>
</svg>
