<svg width="103" height="103" viewBox="0 0 103 103" fill="none" xmlns="http://www.w3.org/2000/svg">
<path d="M51.4721 76.7405C51.4721 83.211 51.4721 89.6815 51.4721 96.0082C51.4721 98.165 51.4721 100.466 51.4721 102.623C50.3213 102.623 49.3144 102.623 48.1637 102.623C45.8622 102.479 43.4168 102.191 41.1153 101.76C19.8264 97.3023 3.85976 80.1914 0.695197 58.6231C0.551353 57.6165 0.695203 56.61 0.263672 55.7473C0.263672 54.4532 0.263672 53.0153 0.263672 51.7212C8.8943 51.7212 17.6688 51.7212 26.2994 51.7212C26.2994 52.8715 26.2994 54.0218 26.5871 55.1721C27.594 61.4988 30.4709 66.819 35.3616 70.8451C40.1084 74.7274 45.4306 76.5967 51.4721 76.7405Z" fill="#003B4E"/>
<path d="M55.6434 0.532217C56.6503 0.963584 57.801 0.819794 58.8079 0.963583C77.9391 3.55179 94.1935 17.2117 100.235 35.6167C101.817 40.5056 102.68 45.5382 102.824 50.7146C102.824 51.4335 102.68 51.5773 101.961 51.5773C93.9058 51.5773 85.9944 51.5773 77.9391 51.5773C77.6515 51.5773 77.2199 51.5773 76.9322 51.5773C76.9322 51.5773 76.7884 51.5773 76.7884 51.4335C76.7884 51.0022 76.7884 50.5708 76.7884 50.1394C76.3569 43.2376 73.48 37.3422 68.3016 32.741C63.5548 28.5711 57.9448 26.4142 51.6157 26.4142C51.6157 17.7869 51.6157 9.15956 51.6157 0.388428C52.9103 0.532217 54.2049 0.532217 55.6434 0.532217Z" fill="#02B2BB"/>
<path d="M51.472 0.532227C51.472 9.15957 51.472 17.7869 51.472 26.558C49.8897 26.4143 48.3075 26.558 46.7252 26.9894C39.9645 28.4273 34.6423 31.8782 30.7585 37.486C27.8816 41.7997 26.2994 46.5447 26.4432 51.7211C17.8126 51.7211 9.0381 51.7211 0.407471 51.7211C0.407471 50.427 0.407471 49.2767 0.407471 47.9826C0.695158 47.8388 0.551312 47.695 0.551312 47.4075C0.839 43.9565 1.41438 40.6494 2.42129 37.3422C8.03119 17.7869 24.2855 3.83937 44.4237 0.963593C45.2867 0.819804 46.2936 0.963594 47.1567 0.532227C48.739 0.532227 50.0336 0.532227 51.472 0.532227Z" fill="#007889"/>
<path d="M48.1636 102.91C48.1636 102.91 48.1636 102.766 48.1636 102.91C48.3074 102.766 48.1636 102.766 48.1636 102.766C49.3143 102.766 50.3212 102.766 51.472 102.766L51.6158 102.91C50.4651 102.91 49.3143 102.91 48.1636 102.91Z" fill="#007889"/>
<path d="M76.6446 51.5773C76.5008 61.4987 72.0416 68.8319 63.5548 73.7208C60.1026 75.7338 56.2188 76.5965 52.1911 76.7403C51.9035 76.7403 51.7596 76.7403 51.4719 76.8841C51.4719 69.6947 51.4719 62.649 51.4719 55.4596C53.6296 55.172 54.9242 54.1655 55.2119 52.0086C55.2119 51.4335 55.6434 51.5773 55.9311 51.5773C62.8356 51.5773 69.7401 51.5773 76.6446 51.5773Z" fill="#003B4E"/>
<path d="M51.4722 55.4595C51.4722 62.6489 51.4722 69.6946 51.4722 76.884C45.4308 76.7402 40.1086 74.871 35.3617 70.9887C30.471 66.8188 27.5942 61.4986 26.5872 55.3157C26.4434 54.1654 26.2996 53.0151 26.2996 51.8647C26.5872 51.8647 27.0188 51.8647 27.3065 51.8647C34.0671 51.8647 40.6839 51.8647 47.4446 51.8647C48.02 53.8778 49.3146 55.1719 51.4722 55.4595Z" fill="#007889"/>
<path d="M51.6157 26.4142C51.6157 33.1723 51.6157 40.0741 51.6157 46.8322C51.6157 47.4074 51.6157 47.6949 50.8965 47.8387C48.8827 48.2701 47.8758 49.708 47.7319 51.721C40.9713 51.721 34.3545 51.721 27.5938 51.721C27.3061 51.721 26.8746 51.721 26.5869 51.721C26.4431 46.5446 28.0253 41.6558 30.9022 37.4859C34.786 31.8782 40.1082 28.2834 46.8689 26.9893C48.3073 26.4142 49.8896 26.2704 51.6157 26.4142Z" fill="#02B2BB"/>
</svg>
